<svg xmlns="http://www.w3.org/2000/svg" width="24" height="24" fill="none"><g clip-path="url(#a)"><path fill="#b1d78a" d="M23.35 7.97c-.37-3.05-1.5-3-2.21-4.1-.72-1.1-4.07-2.87-5.85-3.6-1.31-.52-2.39-.17-3.54.08 1.79.21 4.78 1.08 5.58 1.75a4 4 0 0 1 .55.66c.82.26 1.55.75 2.1 1.42q.3.3.57.63c.14.14.31.24.45.38l1.13 1.2a.4.4 0 0 1 .14.27c0 .04-.02.12-.08.07-.06-.06-.16-.09-.2-.02-.05.1.06.23.15.36q.15.27.26.57.3.6.47 1.28.18.63.45 1.24c.33.85.45 1.77.34 2.68q-.15.87-.24 1.72.12-.59.39-1.55c.5-1.75-.09-1.99-.46-5.03m-13.31 15.9c-.52.08-.87.15-1.2.12-1.44-.18-4.18-.81-5.21-2.53C2.59 19.74.78 18.29.47 16.1c-.3-2.14-.7-4.05-.3-5.69q0 .67.06 1.36c.06.64.33 1.26.54 3.06.1.9.47 1.57 1 2.3q.32.43.62.88.05.23.14.45c.25.6.76 1.6 1.42 1.82a1 1 0 0 1 .34.15q.14.15.23.34.28.33.63.57.07.1.12.2c1.23 1.83 3.32 2.18 4.77 2.35"/><path fill="#46a8c6" d="M2.11 16.8q-.13-.3-.27-.59l-.06-.12a9 9 0 0 1-.72-1.81A4.4 4.4 0 0 1 1 12.2q.23-.75.53-1.46c.3-.82.4-1.7.64-2.53q.18-.5.47-.97.3-.52.7-.99a11 11 0 0 1 2.81-2.47q.27-.06.51-.17c.4-.24.59-.68.98-.9.52-.3 1.08-.85 1.68-.95q.34-.03.7-.1.49-.17.99-.33.22-.09.47-.12c.33 0 .68.08 1.02.04.36-.03.72-.2 1.1-.25a.1.1 0 0 1 .1.02q.03.07-.02.12c-.11.15-.21.35-.1.5a.4.4 0 0 0 .29.09c.39 0 .8-.15 1.17-.03q.33.07.66.1l.73.08q.08 0 .14.04.03 0 .05.04l.02.07c0 .08-.11.12-.13.2q0 .04.02.09 0 .03.06.06a5 5 0 0 0 1.03.3l.25.09-.02-.03a4 4 0 0 0-.53-.63c-.87-.73-4.4-1.71-6.07-1.8-1.67-.08-3.42.74-5.4 1.52C3.85 2.6 2.87 4.7 1.48 6.1.08 7.5.07 10.33.2 11.8c.06.64.33 1.26.55 3.05.1.91.46 1.58.99 2.3q.33.44.62.89a7 7 0 0 0-.27-1.22"/><path fill="#0f7bb6" d="M23.3 10.16q-.28-.6-.46-1.23-.16-.68-.46-1.28a3 3 0 0 0-.26-.57c-.1-.13-.2-.26-.15-.37.05-.06.15-.03.2.02s.07-.02.07-.07a.4.4 0 0 0-.13-.27l-1.13-1.2c-.14-.14-.31-.23-.45-.38q-.3-.3-.57-.62a4.6 4.6 0 0 0-2.42-1.54c.44.13.4.34.6.69.22.38.72.72 1.07.99q.33.25.62.55c.3.32.44.73.64 1.12.08.15.1.33.2.44.12.12.34.15.43.3s0 .35 0 .53c.02.37 1.55 1.41.53 1.77l-.07.04v.09c.02.26.23.47.4.68q.46.64.5 1.43c.02.16 0 1.05-.19 1.3q-.02.06.03.07c.15.04.33.17.31.3-.03.37-.26.7-.3 1.06-.06.57.32 1.12.2 1.68-.1.48-.57.86-.57 1.35q.03.18-.02.35a1 1 0 0 1-.26.21c-.53.33-.78.98-1.25 1.4-.27.24-.6.39-.9.6-.34.26-.79 1-1.22 1.02q-.23 0-.44-.07-.35 0-.64.18c-.42.2-.83.3-1.26.47-.46.2-.9.57-1.3.86-.84.6-1.68 1.25-2.66 1.6-.15.05-.37.06-.41-.09-.05-.15.2-.3.23-.48-.16-.04-.3.1-.43.2q-.43.26-.93.26a6 6 0 0 1-1.85-.18 3 3 0 0 1-.98-.41c-.73-.52-1.57-.74-2.22-1.37q-.14-.15-.3-.25.08.1.13.2c1.36 2.03 3.78 2.25 5.2 2.39.62.06 1.26-.09 3.02.05s1.88-.5 4.67-1.52a4.8 4.8 0 0 0 2.64-1.91l.98-1.65q.23-.38.44-.76c.12-.26.34-.66.44-.58.05.03.03.17.08.2s.05-.01.07-.04c.42-.66.46-1.33.51-2.11.06-.95.2-1.84.35-2.76.12-.91 0-1.84-.33-2.68"/><path fill="#00416a" d="M20.97 15.54c-.07.03-.11.15-.16.22q-.12.14-.22.32-.12.15-.24.32l-.05.1q-.06.14-.05.3.02.12.05.23c.02.19-.07.3-.14.47q-.17.38-.4.74.08.02.11-.05.37-.42.7-.9.18-.29.29-.6c.12-.33.03-.7.17-1.02.02-.1.03-.2-.07-.14m-1.02-7.06q.12.22.22.48.54 1.29.5 2.69c0 .17.02.38.18.43s.15-1.79.12-1.94q-.07-.38-.12-.77c-.04-.3-.2-.52-.32-.78a4 4 0 0 0-.36-.71 1 1 0 0 1-.24-.51l.02-.22c0-.42-.59-.6-.72-.98a1.4 1.4 0 0 0-.24-.57 5 5 0 0 0-.8-.75c-.3-.23-.8-.25-1.16-.32a.4.4 0 0 0-.32.05q.21.25.5.4.6.38 1.03.94c.3.38.48.83.79 1.18q.54.63.93 1.37M8.92 15.22c-.06-.1-.15-.02-.22.02l-.39.29q-.16.15-.22.36c-.04.11-.04.28.05.33a.3.3 0 0 0 .2-.02l.19-.1q.12-.07.22-.18.13-.15.2-.31a.4.4 0 0 0-.04-.39m1.36.96q1.22.18 2.45.2.36-.03.7-.18.23-.1.26-.2.02-.2-.04-.43a1 1 0 0 0-.23-.29l-.26-.2c-.09-.06-.2-.08-.8-.03q-.58.04-1.13.28-.3.15-.52.4c-.16.13-.37.2-.47.33-.08.1 0 .12.04.12m6.67-3.86q-.24-.16-.53-.25a2 2 0 0 0-.4-.04q-.03.02.08.1.17.08.31.2c.1.09.18.18.12.27s-.22.06-.35-.01l-.37-.25q-.12-.05-.1.04c.01.07.05.16 0 .2a.3.3 0 0 1-.36-.08c-.14-.12-.18-.2-.36-.36l-.35-.23a1 1 0 0 0-.31-.2q-.53-.13-1.06-.02c-.55.1-.68.2-.85.18-.1-.01-.12-.05-.15-.15q-.03-.13-.11-.14c-.06-.03-.11-.02-.2-.06a1 1 0 0 1-.55-.46c-.18-.27-.24-.43-.32-.56q-.12-.17-.25-.14-.21.02-.29.53c-.05.32-.08.6-.22.7a.5.5 0 0 1-.4.02.85.85 0 0 0-.8.1q-.24.16-.54.24c-.22.06-.3.06-.36.07-.06 0-.1 0-.13.14-.04.14-.12.31-.2.32a.3.3 0 0 1-.2-.06q-.15-.12-.31-.21a.4.4 0 0 0-.45.07 2.4 2.4 0 0 0-.52 1.24c-.1.64-.16 1.25 0 1.3s.42-.72.68-.6c.22.1.12 1.99.1 2.4 0 .4-.1 1.01.07 1.44.15.42.3.62.93 1.15q.46.36.88.78.29.26.6.44a.3.3 0 0 0 .33-.04l.06-.1q.11-.4.4-.66c.28-.22.34-.4.27-.53q-.1-.16-.36-.1a2.4 2.4 0 0 1-.98.07c-.5-.08-1.23-.28-1.29-.63-.04-.25.15-.5.2-.7s.16-.58-.05-.75c-.13-.11-.24.05-.31.15s-.26.2-.25-.07q0-.4.04-.75 0-.33-.05-.65a.5.5 0 0 1 .16-.46c.15-.1.44-.24.56-.32.11-.07.23-.14.24-.33q.04-.38.22-.71.12-.18.15-.39 0-.14.2-.2.22-.06.17.1-.1.2-.11.4 0 .1.05.16t.13.1a.5.5 0 0 0 .5.03 1.5 1.5 0 0 1 1.58 0l.55.15q.07 0 .13-.04a.2.2 0 0 0 .05-.2c-.03-.11-.16-.35-.04-.4s.23.1.32.33a3 3 0 0 0 .37.7q.23.2.52.27c.22.08.35.06.44.43q.1.34.11.69c0 .37-.06.43-.06.7 0 .3.03.4-.08.54q-.06.1-.13.05c-.04-.04 0-.08.01-.14a1 1 0 0 0 0-.36l-.01-.14q0-.1-.09-.1c-.11.02-.18.11-.35.12l-.8.04c-.24.02-.74.05-1.13.06q-.52.03-1.06-.02l-.54-.07c-.07 0-.42.04-.49.29q-.05.18.07.2l.66.07c.18.03.59.09.8.1l.6-.03c.16 0 .5.03.51.53q-.02.27.13.4.46.27.94.47.47.24.96.12.3-.12.21-.4-.1-.3 0-.4c.08-.07.17-.14.55-.12.2.01.49.12.61-.07q.19-.33.51-.52c.32-.22.47-.37.46-.92q-.06-1.07.01-2.13c.08-.58.43-.86.63-1.27.19-.35.26-.52 0-.66M6.33 5.25q-.03 0-.1.04-.14.08-.3.16c-.22.1-.4.2-.43.47v.1l.01.03c.06.08.28-.04.34-.08a1 1 0 0 0 .18-.22l.13-.2q.06-.11.14-.22.03-.06.02-.08m1.57 5.79c.03.08.1.19.32.11.21-.08.63-.2.84-.26q.3-.07.63-.04c.11.02.12-.1.06-.13l-.7-.2a.5.5 0 0 0-.35 0l-.63.2q-.26.09-.17.33m.38-2.12q.03.15.4.12c.3-.03 1.3-.18 1.57.04.16.11.18.14.2.44s.05.27.1.28c.04 0 .16-.06.3-.3.12-.24.68-.5 1.43-.56a3.5 3.5 0 0 1 2.13.35c.77.4 1.57 1.03 1.96.85.2-.1.33-.43.13-1.26a3.5 3.5 0 0 0-.69-1.46c-.12-.15-.31-.3-.44-.23-.13.08.03.52.16.72s.14.32-.1.23q-.4-.14-.7-.44c-.23-.24-.6-.94-.8-.83s.06.58-.05.63-.32-.2-.52-.48-.33-.6-.59-.7c-.25-.08-.92-.16-1.9.29q-1.2.57-2.16 1.52c-.45.49-.47.7-.44.8m7.63 2.7c0-.04-.09-.05-.15-.05a1.3 1.3 0 0 1-.67-.28c-.24-.22-.46-.5-.6-.64a.7.7 0 0 0-.64-.27c-.38.04-.73.15-.7.32.03.1.23.07.44.02.21-.04.52-.09.6.05q.18.36.48.62.4.35.92.37c.37 0 .32-.12.31-.15m.44-.64-.6.09c-.05 0-.14.01-.14.08s.24.16.58.11q.5-.04.46-.2c-.01-.11-.17-.1-.31-.08M4.73 7.27c.05-.22.25-.36.23-.58 0-.01 0-.04-.05-.01-.25.12-.5.54-.68.72q-.43.44-.85.93-.33.37-.56.82c-.34.8-.47 1.7-.38 2.57q.06.7.23 1.4c.1.38.1.82.21 1.19q.06.16.2.26c.03.02.1.02.1-.1a51 51 0 0 1 .1-3.33q.12-.95.48-1.84c.23-.58 1-1.06.98-1.7q-.03-.17 0-.32m17.78 8.42c-.1.48-.56.86-.56 1.35q.03.18-.02.35a1 1 0 0 1-.26.21c-.53.33-.78.98-1.25 1.4-.27.24-.61.39-.9.6-.35.26-.79 1-1.22 1.02q-.23 0-.44-.08-.35 0-.65.18c-.41.2-.82.3-1.24.48-.46.2-.9.57-1.3.86-.84.6-1.69 1.25-2.67 1.6-.15.05-.36.06-.41-.09s.2-.3.23-.49c-.16-.03-.29.1-.42.2q-.43.27-.94.26a6 6 0 0 1-1.85-.17 3 3 0 0 1-.98-.42c-.73-.5-1.57-.73-2.21-1.37-.27-.25-.73-.52-.92-.81a1 1 0 0 0-.23-.35q-.15-.1-.34-.15c-.66-.22-1.18-1.2-1.42-1.8-.22-.55-.2-1.14-.41-1.68q-.13-.3-.27-.59l-.07-.12a9 9 0 0 1-.71-1.81 4.4 4.4 0 0 1-.07-2.08q.23-.75.53-1.46c.3-.82.4-1.7.64-2.52q.18-.51.47-.98.3-.53.7-.98a11 11 0 0 1 2.8-2.48q.27-.05.51-.16c.4-.24.6-.69.98-.91.52-.3 1.08-.85 1.68-.95q.36-.03.7-.09.48-.17 1-.34.22-.09.46-.12c.33 0 .68.08 1.02.05.36-.04.72-.2 1.1-.26a.1.1 0 0 1 .1.02q.03.07-.02.12c-.1.15-.2.36-.1.5a.4.4 0 0 0 .29.09c.4 0 .8-.15 1.18-.03q.32.07.65.1.37.04.73.09.08 0 .14.03.03 0 .05.05l.02.06c0 .08-.11.12-.12.2l.01.1.06.05q.46.2.94.28c.48.13.41.34.62.7s.73.71 1.08.99q.33.25.62.55c.3.32.44.73.64 1.11.08.15.1.33.2.45.12.12.34.14.43.3.09.14 0 .35 0 .54.02.37 1.55 1.41.53 1.76l-.07.04-.01.1c.03.26.23.47.4.68q.46.63.51 1.43c.01.15-.01 1.05-.2 1.3q-.02.04.03.07c.15.03.33.17.32.3-.04.36-.27.7-.3 1.06-.06.56.3 1.11.19 1.67m-8.07-.54q-.1-.01-.14.05c-.03.05-.03.07 0 .22a3.3 3.3 0 0 1 0 1.63c-.06.18.1.18.12.18h.15q.08 0 .1-.15.07-.45.05-.88.01-.46-.18-.87-.04-.2-.1-.18m-4.77-3.03-.2-.1c-.06-.05-.06-.04-.11 0q-.23.18-.51.25-.27.08-.56.1c-.06 0-.13-.02-.17.08q-.07.15.04.18.25.1.5.07.33-.03.62-.16.23-.08.41-.22.1-.12-.02-.2m4.34.28a1.4 1.4 0 0 1-.71.16 4 4 0 0 1-.67-.05q-.1-.02-.11-.2c-.01-.21.11-.17.25-.16q.18-.02.44-.02.35.04.7 0a.6.6 0 0 0 .32-.16q.07-.07.12.09c.04.1-.12.2-.34.33"/><path fill="#7fa9c8" d="M20.3 16.5q-.06.13-.05.29.02.11.05.24c.02.18-.07.3-.14.46q-.16.38-.4.75.08.01.11-.05.37-.43.7-.9.17-.3.29-.6c.12-.34.03-.71.17-1.03.03-.08.03-.18-.07-.13-.06.04-.1.16-.15.23l-.22.31c-.07.12-.17.2-.24.33l-.06.09m.38-4.84c0 .17 0 .38.17.43.16.06.15-1.78.12-1.94q-.08-.38-.12-.77c-.04-.3-.21-.5-.32-.78a4 4 0 0 0-.36-.7 1 1 0 0 1-.24-.52l.02-.22c0-.42-.59-.59-.72-.97a1.4 1.4 0 0 0-.24-.58 5 5 0 0 0-.8-.74c-.3-.23-.8-.26-1.16-.33a.4.4 0 0 0-.33.05q.22.25.52.4.59.4 1.02.95c.3.37.48.82.79 1.18q.54.63.93 1.37.12.23.22.48.53 1.3.5 2.69M5.52 6.05c.06.07.28-.06.35-.09a1 1 0 0 0 .17-.22l.13-.2q.06-.11.14-.22.03-.03.02-.07l-.1.05q-.14.08-.3.15c-.21.1-.39.2-.43.47v.1zm-2.23 5.08-.06.7q-.05 1.33-.04 2.62c0 .13-.08.13-.1.11a.5.5 0 0 1-.2-.26c-.12-.37-.11-.8-.21-1.2q-.18-.68-.24-1.4c-.1-.87.04-1.76.38-2.56q.23-.46.56-.82.42-.48.85-.93c.18-.18.43-.6.68-.72.05-.03.06 0 .06.01.02.23-.2.36-.23.58v.31c.02.65-.75 1.13-.98 1.7q-.35.9-.46 1.85"/><path fill="#fff" d="m12.76 12.18.44-.02q.36.04.71 0a.6.6 0 0 0 .32-.15q.06-.06.12.08c.04.1-.12.2-.34.33a1.4 1.4 0 0 1-.72.16q-.33 0-.66-.05-.1-.02-.11-.2c-.02-.2.1-.16.24-.16m-4.47.22q.28-.02.55-.1.3-.07.52-.26c.05-.05.06-.05.12 0s.1.05.2.1a.1.1 0 0 1 .06.1.1.1 0 0 1-.04.1q-.2.14-.42.23-.3.13-.6.16-.27.03-.52-.07-.1-.05-.04-.18c.05-.09.12-.08.17-.08m6.15 4.85c-.02 0-.2 0-.11-.19q.2-.81 0-1.62c-.03-.15-.04-.17 0-.22.05-.04.06-.05.13-.06.05 0 .05.05.1.2q.2.42.19.88 0 .45-.05.88-.02.15-.1.15h-.16m-3.6-6.9c-.14 0-.23.22-.28.54s-.09.6-.23.7a.5.5 0 0 1-.4.02.85.85 0 0 0-.8.1q-.24.16-.53.24l-.36.07c-.07 0-.1 0-.14.14s-.12.31-.2.32a.3.3 0 0 1-.2-.06q-.15-.12-.31-.21a.4.4 0 0 0-.45.07q-.44.54-.51 1.24c-.1.64-.16 1.25 0 1.3s.41-.72.67-.6c.23.1.12 1.99.11 2.4s-.1 1.02.06 1.44.3.62.94 1.15q.45.36.88.78.27.26.6.44a.3.3 0 0 0 .33-.04l.06-.1q.1-.4.4-.66c.28-.22.34-.4.27-.53q-.1-.16-.37-.1a2.4 2.4 0 0 1-.98.07c-.48-.08-1.22-.28-1.28-.63-.05-.25.14-.5.2-.7s.15-.58-.05-.75c-.13-.11-.25.05-.32.15-.06.1-.25.2-.24-.06q0-.41.03-.76.02-.33-.04-.65a.5.5 0 0 1 .18-.46c.14-.1.44-.24.55-.31s.24-.15.24-.33q.06-.38.23-.72.1-.18.15-.39 0-.14.2-.2.22-.06.17.1-.09.2-.12.41 0 .08.06.15t.13.1a.5.5 0 0 0 .5.03 1.5 1.5 0 0 1 1.58.01l.55.14q.07 0 .12-.04l.06-.09v-.1c-.03-.12-.16-.36-.04-.41s.23.1.32.32a3 3 0 0 0 .36.7q.24.2.53.28c.21.07.35.05.44.43q.1.33.1.68c0 .38-.05.44-.05.7 0 .31.03.4-.09.55q-.05.08-.12.04c-.05-.03 0-.07 0-.13a1 1 0 0 0 0-.37q0-.07 0-.14 0-.1-.1-.09c-.1.01-.17.1-.34.12l-.8.04c-.24.01-.74.05-1.13.06q-.54.02-1.06-.03l-.54-.06c-.07 0-.43.04-.49.29q-.05.18.07.2c.09.02.47.04.66.07.18.02.59.08.8.09l.6-.02c.16-.01.5.02.51.52 0 .17.01.32.13.4q.45.28.94.48.46.24.96.12.3-.13.2-.4-.1-.3 0-.4c.09-.07.18-.15.56-.13.2.02.49.12.61-.07q.19-.33.5-.52c.32-.22.48-.37.47-.92q-.06-1.06.01-2.13c.08-.57.43-.86.63-1.26.18-.35.25-.53 0-.67q-.24-.17-.53-.25a2 2 0 0 0-.4-.04q-.03.02.08.09.17.09.31.21c.1.09.18.18.12.27s-.22.06-.35-.01-.3-.22-.37-.25q-.12-.05-.1.04c.01.07.05.15 0 .2a.3.3 0 0 1-.36-.08c-.14-.12-.18-.2-.36-.36l-.35-.23a1 1 0 0 0-.31-.2q-.53-.13-1.06-.03c-.55.1-.68.2-.85.19-.1-.02-.12-.05-.15-.15s-.05-.12-.11-.15-.11 0-.2-.05a1 1 0 0 1-.55-.47c-.18-.26-.24-.42-.32-.55-.09-.12-.14-.15-.25-.15m1.89 6.02q.36-.03.69-.18c.17-.08.23-.11.26-.18q.02-.23-.03-.44a1 1 0 0 0-.24-.3l-.25-.2c-.09-.06-.2-.07-.8-.02q-.59.04-1.13.28-.3.15-.52.4c-.16.13-.38.2-.47.33-.1.12 0 .12.04.13q1.22.18 2.45.2m-4.38-.19.18-.1q.12-.08.23-.18.12-.14.2-.3a.4.4 0 0 0-.04-.4c-.06-.1-.15-.02-.22.02l-.39.29q-.15.14-.22.35c-.04.12-.04.29.05.33a.2.2 0 0 0 .2 0m7.24-5.04c0 .08.24.15.58.1q.5-.04.46-.2c-.01-.11-.17-.1-.31-.07l-.6.08c-.05 0-.14.01-.14.09m-2.44-.45c.02.1.23.06.44.02s.52-.1.6.05q.18.35.47.62.4.35.93.36c.36-.01.3-.12.3-.15s-.08-.04-.14-.04a1.3 1.3 0 0 1-.68-.28c-.23-.22-.46-.5-.59-.65a.7.7 0 0 0-.65-.27c-.37.05-.72.17-.68.34m-4.95.43c.22-.07.63-.2.84-.25a2 2 0 0 1 .63-.04c.11 0 .12-.1.06-.13l-.7-.2a.5.5 0 0 0-.35 0l-.63.2q-.26.08-.17.32c.03.08.1.19.32.12m6.2-1.86c-.76-.4-1.4-.4-2.14-.34s-1.3.31-1.43.56c-.13.24-.26.3-.3.3-.04-.01-.07.02-.1-.28s-.04-.33-.19-.45c-.27-.2-1.27-.06-1.57-.03q-.37.02-.4-.12c-.03-.1-.02-.3.45-.78a8 8 0 0 1 2.16-1.52c.98-.45 1.64-.38 1.9-.28s.4.41.59.69c.2.28.4.53.52.48.1-.05-.16-.52.05-.63.2-.1.57.59.8.82q.3.3.7.45c.23.09.22-.04.1-.23-.13-.2-.29-.64-.16-.72s.3.08.44.22q.5.66.69 1.47c.2.82.07 1.16-.13 1.25-.4.18-1.23-.46-1.96-.86"/></g><defs><clipPath id="a"><path fill="#fff" d="M0 0h24v24H0z"/></clipPath></defs></svg>