<svg xmlns="http://www.w3.org/2000/svg" fill="#c20831" viewBox="0 0 24 24"><path d="M13.79 8.77a.3.3 0 0 0-.24-.18q-.3.01-.45.47l.38.1c.09-.3.21-.38.3-.4m-1.24-1.7c0 .3.23.6.6.6s.6-.22.6-.47c0-.13-.11-.23-.22-.23a.2.2 0 0 0-.22.22q0 .07.04.13-.35.02-.51-.22a.23.23 0 0 0 .2-.22q-.02-.2-.22-.22c-.14 0-.27.12-.27.41m.45.85V8c0 .1.18.22.39.22.58 0 .77-.6 1.28-.6.36 0 .65.29.65.74 0 .4-.23.75-.66.91q-.17.07-.2.35h.03c.73 0 1.27-.57 1.27-1.26s-.48-1.17-1.09-1.17c-.7 0-.82.75-1.56.75zm-1.27.35c.12.13.19.24.26.41v.01a2 2 0 0 1 .28-.42 2 2 0 0 0-.27-.43 2 2 0 0 0-.27.43zm2.64.81q-.05-.15-.2-.17c-.2 0-.31.2-.37.36l.34.15c.06-.22.14-.3.23-.34m8.2 5.53h-.6c-.41.39-.74.46-1.62.46h-1.94q-.32.3-.7.41v.03h2.64c1.21 0 1.57-.17 2.21-.9m-.92 1.06h-.6c-.4.39-.74.46-1.61.46h-1.95q-.31.3-.7.4v.03h2.65c1.21 0 1.57-.16 2.2-.89M11.58 6.85l.43-.31.43.31-.17-.5.43-.32h-.53l-.16-.5-.16.5h-.53l.43.32zm11.48 6.54c-.49.53-.78.62-1.77.62h-1.94q-.32.3-.7.41v.03h2.64c1.34 0 1.63-.2 2.42-1.14l.3-.36h-7.77l.11.44zm-11.31-.43-.14.43h3.07l-1.1.8.14.43 1.92-1.4a3.8 3.8 0 0 1-1.12 3.86l.15.45A4.2 4.2 0 0 0 16 12.96zm8.97 3.76h-.6c-.4.4-.73.46-1.6.46h-3.19a5 5 0 0 1-.44.44h3.62c1.22 0 1.57-.17 2.21-.9M10.46 8.6a.3.3 0 0 0-.24.17c.1.02.22.1.32.4l.37-.1q-.15-.46-.45-.47m.78.4.4-.04c-.08-.38-.3-.65-.52-.65q-.16.02-.24.18c.13.02.28.18.36.51m-1.13 8.53-.38.28a4 4 0 0 0 2.28.67c.92 0 1.78-.3 2.47-.8l-1.32-4.07h-.45l.95 2.93-1.1-.8-.37.27 1.92 1.4a3.7 3.7 0 0 1-2.1.64q-1.02 0-1.9-.52M9.85 9.4l.34-.14c-.06-.17-.17-.36-.37-.36q-.15.02-.2.17c.09.03.16.11.22.33m4.5.85V9.8a5 5 0 0 0-2.36-.64c-.84 0-1.7.27-2.35.64v.45A4.6 4.6 0 0 1 12 9.6q1.26 0 2.36.66m-2.36-.22-1.31 4.06.37.27.94-2.93.42 1.3h.46l-.73-2.26a3.8 3.8 0 0 1 3.31 2.25h.47a4.2 4.2 0 0 0-3.92-2.7m.88-1.73c-.21 0-.43.26-.51.65l.4.04c.08-.33.23-.49.36-.51q-.07-.16-.25-.18m-6.6 7.2v-.02a2 2 0 0 1-.7-.41H3.65c-.87 0-1.2-.08-1.6-.46h-.6c.63.73.99.9 2.2.9zm.93 1.06v-.02a2 2 0 0 1-.7-.41H4.57c-.88 0-1.2-.08-1.61-.46h-.6c.64.73 1 .9 2.2.9zm1.46.62H5.5c-.87 0-1.2-.07-1.6-.45h-.6c.64.72 1 .89 2.2.89h3.63a5 5 0 0 1-.44-.43m2.16-9.51a.6.6 0 0 0 .61-.6c0-.3-.13-.42-.27-.42-.13 0-.23.1-.23.22s.1.2.21.22q-.17.25-.5.21a.22.22 0 0 0-.19-.34c-.1 0-.22.1-.22.23 0 .25.24.48.6.48m-8.13 6.77h2.64v-.03a2 2 0 0 1-.7-.4H2.72c-1 0-1.28-.1-1.77-.63h6.7q.05-.21.12-.43H0l.3.36c.79.93 1.08 1.13 2.42 1.13m6.8-4.84h.02q-.03-.29-.2-.35a1 1 0 0 1-.67-.91c0-.45.3-.73.65-.73.52 0 .7.6 1.3.6.2 0 .37-.13.37-.23v-.07h-.1c-.74 0-.86-.74-1.57-.74-.6 0-1.08.48-1.08 1.17S8.78 9.6 9.51 9.6m2.3 5.59-2.48-1.8h1.35l.14-.44H8.45a3.8 3.8 0 0 1 3.17-2.46l.14-.45A4.2 4.2 0 0 0 8 12.95l3.45 2.52zm-2.29 2.47 3.45-2.5-.14-.44-2.48 1.8.41-1.29-.37-.26-.73 2.25a3.8 3.8 0 0 1-1.35-3.77l-.38-.28a4.2 4.2 0 0 0 1.6 4.49"/></svg>