<svg width="24" height="24" viewBox="0 0 24 24" fill="none" xmlns="http://www.w3.org/2000/svg">
<path d="M0.769727 9.83561H1.68288V14.7286C1.68288 15.4894 1.12754 16 0.357525 16H0V15.1405H0.259187C0.572603 15.1405 0.769727 14.9968 0.769727 14.6568V9.83561ZM0.769727 8H1.68288V8.91332H0.769727V8Z" fill="#003876"/>
<path d="M3.18561 11.6978C3.20336 11.0085 3.60639 10.6415 4.14382 10.6415C4.68121 10.6415 5.07501 11.0085 5.10153 11.6978H3.18561ZM6.01476 12.4495V11.6978C6.01476 10.525 5.14596 9.78186 4.1439 9.78186C3.26592 9.78186 2.27246 10.3546 2.27246 12.1187C2.27246 13.9808 3.3556 14.4286 4.287 14.4286C4.89539 14.4286 5.47758 14.2133 5.92491 13.6942L5.26299 13.1305C4.99397 13.4077 4.61816 13.569 4.269 13.569C3.64217 13.569 3.18566 13.1928 3.18566 12.4495H6.01476Z" fill="#003876"/>
<path d="M6.73862 8.4566H7.65178V9.83558H8.31382V10.5339H7.65178V13.1749C7.65178 13.4258 7.75007 13.5152 7.97327 13.5152H8.31382V14.3747H7.83952C7.20359 14.3747 6.73862 13.9711 6.73862 13.2555V10.5339H6.28125V9.83558H6.73862V8.4566Z" fill="#003876"/>
<path d="M11.3497 11.5456C12.0658 11.5456 12.3875 12.002 12.3875 12.5033C12.3875 13.005 12.0657 13.4615 11.3497 13.4615H9.86313V11.5456H11.3497ZM8.89575 14.3748H11.582C12.5402 14.3748 13.3546 13.6674 13.3546 12.5663C13.3546 11.9217 13.0146 11.2592 12.3163 11.0976V11.08C13.0594 10.7486 13.2566 10.2383 13.2566 9.71026C13.2565 8.70746 12.6112 8 11.3671 8H8.89575V14.3748ZM11.2596 8.85982C11.9581 8.85982 12.2892 9.28043 12.2892 9.77294C12.2892 10.274 11.9581 10.6864 11.2596 10.6864H9.86313V8.85982H11.2596Z" fill="#003876"/>
<path d="M13.8796 8H14.7928V13.2018C14.7928 13.4077 14.9092 13.5153 15.1338 13.5153H15.4467V14.3748H15.0438C14.3808 14.3748 13.8796 14.0885 13.8796 13.2733V8Z" fill="#003876"/>
<path d="M15.8313 9.83557H16.7446V12.5391C16.7446 13.1573 17.1294 13.5152 17.6494 13.5152C18.1595 13.5152 18.544 13.1573 18.544 12.5391V9.83557H19.4575V14.3747H18.544V13.891H18.5268C18.24 14.2493 17.828 14.4286 17.3533 14.4286C16.6376 14.4286 15.8313 13.8821 15.8313 12.8529V9.83557Z" fill="#003876"/>
<path d="M20.8616 11.6978C20.8802 11.0085 21.2823 10.6415 21.8196 10.6415C22.3567 10.6415 22.7506 11.0085 22.7781 11.6978H20.8616ZM23.6911 12.4495V11.6978C23.6911 10.525 22.8226 9.78186 21.8196 9.78186C20.9421 9.78186 19.948 10.3546 19.948 12.1187C19.948 13.9808 21.0318 14.4286 21.9626 14.4286C22.5721 14.4286 23.1536 14.2133 23.6014 13.6942L22.9386 13.1305C22.6699 13.4078 22.2945 13.5691 21.9451 13.5691C21.3185 13.5691 20.8616 13.1929 20.8616 12.4495L23.6911 12.4495Z" fill="#003876"/>
</svg>
