<svg xmlns="http://www.w3.org/2000/svg" fill="#005d63" viewBox="0 0 24 24"><path d="M21.83 15.97c-.1-.37-1.16-.21-2.04-.3-.8-.07-1.81-.21-3.04-.64-1.15-.4-2.26-.87-3.23-1.4l-.44-.23-.22-.13-.17-.1-.18-.1-.2-.12-.23-.16-.14-.08-.16-.1-.2-.15-.14-.1q-.1-.04-.17-.1l-.09-.08-.17-.15q-.07-.07-.16-.13l-.13-.1-.22-.18-.16-.14q-.1-.08-.2-.14l-.11-.1q-.06-.08-.13-.14-.06-.06-.13-.11l-.2-.2-.07-.08-.06-.07-.06-.07-.08-.07-.07-.09-.05-.07-.1-.11-.08-.08-.04-.06-.04-.06q-.05-.04-.05-.01-.04.02 0 .08.03.07.07.11v.02l.03.04.04.06.1.12.03.03.06.08.07.09.03.03q0 .02.03.05l.06.06.1.1.07.07.2.23q.06.06.13.1t.1.13l.12.11a1 1 0 0 0 .2.2q.06.04.12.12l.13.14q.1.15.09.17c-.05.02-.17-.09-.23-.13l-.12-.1-.13-.1-.1-.12c-.1-.13-.14-.14-.25-.25l-.27-.23-.07-.07-.08-.08c-.04-.05-.09-.14-.13-.17l-.13-.1-.05-.05-.07-.06-.16-.21-.08-.1-.16-.22q-.12-.14-.26-.28-.1-.16-.18-.32-.05-.07-.12-.13l-.04-.09-.13-.17-.13-.23-.05-.1-.1-.14-.07-.13-.06-.1-.06-.1q-.06-.08-.1-.16-.06-.07-.1-.06v.05l.04.1q.04.08.1.16l.07.14.07.11c.02.04.05.13.08.16l.06.12.14.2.07.16.18.24.1.18.1.14.1.18.1.14.15.23.1.11.12.17.1.12c.07.08.21.29.19.29-.09.01-.25-.18-.33-.25l-.15-.14-.15-.24q-.04-.04-.07-.08l-.12-.14-.06-.05q-.1-.15-.2-.28l-.08-.1-.06-.1-.08-.13-.06-.08q-.05-.08-.12-.16l-.06-.16-.23-.34-.04-.1-.18-.29-.05-.1-.1-.12-.04-.1-.08-.14-.04-.1-.19-.35-.1-.18-.1-.22-.05-.14q-.07-.11-.12-.22l-.06-.15q-.02-.04-.06-.03-.03 0 0 .07l.08.22.1.27.07.15.12.25.07.14q.01.04.04.08.03.1.06.17l.1.17q.2.43.43.82.06.12.12.23.08.1.16.2l.08.21.18.27.04.08.07.11q.03.08.08.15l.11.13q.07.1.12.19l.11.11.28.36c.07.1.2.25.27.37.02.04.09.13.07.15-.03.03-.2-.16-.23-.19l-.2-.24-.2-.2-.04-.07q-.06-.1-.12-.21L8 10.59l-.1-.16-.2-.23q-.08-.15-.17-.28l-.1-.13-.03-.06q-.04-.06-.07-.12l-.05-.1-.2-.33L7 9.04l-.17-.23-.15-.3-.12-.18-.1-.22-.11-.18-.09-.2-.06-.12-.05-.14q-.1-.19-.2-.38l-.12-.28-.05-.16-.17-.36-.07-.19-.01-.05-.08-.17-.06-.2-.24-.65q0-.07-.03-.13-.05-.18-.12-.34c-.02-.06-.07-.04-.06.02l.04.16q0 .04.02.09l.03.1.05.2.12.41.05.13q.07.17.12.34l.05.2q.04.04.06.1.02.04.03.1l.09.21.08.19.03.08q.1.3.22.57l.05.14.05.12.03.07q.04.07.1.15.08.22.21.42.1.18.18.41l.1.18.05.1q.05.1.11.2c.04.05.03.07.06.14l.04.16c-.01.01-.08-.03-.1-.06q-.05-.04-.12-.15l-.06-.15q-.08-.13-.17-.25l-.08-.16-.14-.3-.07-.12-.06-.12q-.09-.12-.16-.27l-.08-.2-.04-.07-.05-.1-.08-.16-.13-.32-.08-.14q-.03-.12-.08-.25-.15-.3-.27-.63l-.03-.12-.11-.27-.03-.12-.08-.2q0-.03-.02-.07l-.07-.19-.05-.1q-.01-.1-.03-.2l-.1-.27-.04-.15-.07-.18-.04-.18-.05-.15q-.04-.14-.07-.25l-.01-.05q-.02-.04-.05-.03-.02.02-.02.06.01.08.04.17l.05.16.01.1.04.15q.02.08.02.13l.1.33.04.16.05.16.04.13.06.14.04.2.12.29.02.1.08.27.14.35q.06.2.1.36.06.08.1.14.02.05.02.12l.05.13.03.1.07.14q.04.1.09.2l.1.15.05.18q.07.13.12.27.03.13.09.24t.13.21l.07.17.08.12.09.17.04.12.1.16.1.18q.01.06.06.13l.08.11c.03.05.06.18.05.19-.03.01-.11-.07-.14-.1q-.08-.13-.15-.27l-.16-.25c-.03-.06-.07-.17-.11-.23q-.06-.08-.1-.15l-.06-.15q-.06-.09-.12-.18l-.1-.24-.05-.1-.06-.14q-.08-.14-.15-.28l-.12-.3-.1-.15q-.03-.1-.08-.21l-.07-.13q-.04-.1-.06-.2l-.2-.43-.06-.17-.07-.15q-.06-.2-.13-.4l-.09-.2-.1-.33q-.07-.27-.16-.52l-.04-.16-.06-.15-.03-.15-.14-.43q0-.07-.02-.15l-.03-.07-.02-.1q-.06-.16-.1-.34 0-.05-.02-.12c-.05-.14-.07-.33-.13-.47q-.01-.05-.06-.05-.03.02-.01.06.01.1.04.2v.08l.02.08.09.3.01.15q.05.23.12.44.06.19.09.39l.02.16q.01.08.06.14 0 .04.02.1l.08.27.08.18.01.08.05.2.13.38.05.2.3.81.04.17.09.17q.04.1.06.22.06.11.1.24l.06.13q.02.05.06.1.02.09.05.17t.1.15q.03.07.05.15.07.12.12.25l.04.1.07.12v.02l.02.06.05.08.04.05.02.02.07.2q.04.08.1.17c.03.05.04.16.01.17-.12 0-.13-.17-.17-.26q-.05-.1-.12-.2l-.02-.06-.03-.07-.02-.05-.06-.09c-.05-.07-.08-.18-.12-.23l-.05-.09q-.04-.06-.07-.16l-.08-.14q-.03-.1-.06-.2l-.06-.1q-.04-.1-.09-.2l-.05-.1-.08-.18-.18-.36-.07-.21-.09-.18-.04-.11-.08-.21-.04-.2-.06-.14q-.05-.12-.08-.23l-.07-.18-.05-.14-.04-.11-.05-.18L3.98 5c-.02-.05-.02-.16-.03-.19l-.2-.6-.06-.27q0-.06-.02-.12l-.05-.17-.03-.12q-.01-.06-.04-.12l-.1-.36q0-.08-.02-.15l-.1-.46-.02-.13c-.07-.28-.1-.6-.19-.86v-.17l-.06-.18-.01-.07Q3.02.94 2.99.94q-.03.02-.02.08 0 .08.02.16L3 1.3q.04.14.05.28l.01.12q.02.07.05.14l.01.19.05.15.01.13q.03.06.04.12l.01.17c.06.25.08.54.15.77l.02.1q.08.33.17.64l.01.1.05.22.02.1.07.22.02.11.03.09q0 .06.02.12l.04.08.02.13.07.15q.02.06.03.13l.09.23.05.2.05.12.02.1.07.12q.02.07.02.16l.07.13.02.14.05.1.05.12q.01.04.04.09l.06.14q.03.1.05.22l-.01.08q-.05-.01-.09-.07l-.1-.17-.02-.07-.05-.16-.05-.1c-.02-.05 0-.1-.03-.15q-.02-.05-.06-.1l-.03-.1-.06-.11-.03-.12-.05-.14-.07-.15-.02-.08-.05-.1-.02-.1-.06-.12q0-.05-.03-.1l-.06-.2-.03-.14-.06-.17q-.02-.07-.03-.13l-.08-.18q0-.07-.02-.15l-.1-.36c-.05-.13-.05-.29-.1-.42l-.08-.28-.02-.14c-.03-.1-.06-.25-.1-.35q-.02-.09-.03-.19l-.04-.2q-.02-.05-.03-.12-.02-.09-.02-.16l-.09-.31v-.15l-.05-.15-.02-.1c0-.06-.04-.17-.04-.2l-.01-.14-.05-.17q0-.1-.02-.2L2.63.83 2.61.7V.58L2.57.42l-.03-.2V.14Q2.5 0 2.45 0q-.03 0-.02.07l.03.16.02.13v.09l.01.07.02.08v.15l.02.07v.07l.01.07q.04.08.04.19-.02.12.02.21l.01.13.04.18q0 .08.02.14l.07.18v.16l.03.14v.06l.05.17v.08l.04.19.01.1.05.16.01.11.04.15.02.12.05.26.06.15.03.14q.02.05.05.12v.1q.04.06.04.13l.01.1.04.1q0 .06.02.13l.05.15q.02.08.02.14l.1.32q.02.08.03.17l.05.1v.1q.04.12.06.22.04.1.09.2l.05.21.08.18q.01.1.03.18.04.08.08.17l.07.2.02.1.1.24.03.11.07.19.09.16q.02.07.05.15l.05.15q.02.04.03.1l.2.4.08.23.09.17.04.12q.06.11.1.22c.02.02.04.1.03.13q-.05 0-.1-.05c-.09-.09-.1-.25-.16-.36l-.05-.1-.03-.07q-.06-.1-.11-.21-.03-.1-.05-.17-.16-.32-.31-.64-.06-.15-.1-.31-.04-.1-.08-.18-.02-.07-.05-.14-.05-.09-.09-.19l-.03-.12-.08-.13-.05-.22-.05-.12-.02-.1q-.06-.13-.11-.24l-.04-.19-.07-.12q-.01-.08-.02-.17l-.05-.16-.03-.1-.07-.2q0-.04-.02-.1l-.07-.1-.03-.2-.08-.24-.02-.08-.04-.23-.02-.1-.07-.2-.02-.13-.1-.34v-.09q-.05-.13-.08-.26l-.03-.15q-.01-.08-.04-.17v-.07l-.01-.1-.13-.49-.02-.16q0-.06-.02-.12l-.04-.12q0-.1-.02-.19v-.01c0-.08-.05-.24-.06-.3l-.02-.22-.02-.15-.04-.22V.5q0-.07-.05-.08-.04.01-.03.07l.02.23.01.28.03.15.03.26.01.13v.02l.02.05q0 .04.02.1.02.16.05.31.03.22.1.46l.01.13.04.13q0 .1.02.17.01.08.04.16t.03.19l.05.2.04.24q.03.11.07.22V4l.04.15v.07l.09.3q0 .06.02.1l.04.14.02.11.04.14.02.1.05.13q.03.13.06.26l.06.15.03.16.09.26.09.3.03.12.08.3.04.14q.06.12.1.23l.06.2.11.27.06.19.07.15.05.13.07.14q.04.1.06.2l.12.3.04.11.1.18.06.18c.04.08.06.13.06.25l-.01.02q-.04 0-.06-.03c-.07-.07-.07-.13-.12-.22q-.1-.2-.2-.39l-.07-.21-.07-.13-.07-.18q-.07-.13-.12-.26l-.03-.1-.06-.1-.06-.2-.14-.32-.1-.32-.04-.13-.03-.11-.12-.29-.04-.14-.07-.18q-.03-.12-.06-.25l-.2-.53-.01-.13-.09-.29c-.03-.1-.02-.22-.06-.33l-.13-.4q0-.08-.02-.13l-.1-.33-.04-.14q-.05-.08-.07.02.01.1.03.16 0 .06.02.12.02.1.06.2l.04.2.03.11q.02.12.05.2l.05.18q0 .05.02.1.01.1.06.19l.01.1.04.15.02.16.1.27q.03.14.07.28.08.26.17.53l.03.14.05.21.05.1q.02.06.05.13l.04.1q.03.1.04.17l.05.13.04.14q.02.06.06.1l.03.12.06.12.03.14q.04.05.06.11.02.07.03.14l.1.19.04.14.08.16.09.21q.06.2.12.38l.14.26.05.14.1.16.05.15.1.2.05.1q.06.11.12.21l.05.15.13.21.07.18.14.22.1.18.1.16q.04.1.09.17l.1.16q.09.15.16.29l.14.19c.12.16.29.46.36.57q.08.12.17.25l.14.2.1.16.04.04a18 18 0 0 0 4.46 4.14c.7.45 1.09.57 1.09.57.08.04.02.1-.02.14l-7.94 5.13c-.03.01-.09.06-.07.1.03.05.1.02.13.02 6.37-2.26 11-4.12 13.82-5.47 2.86-1.38 3.82-2.16 3.72-2.55M4.88 8.37l-.04-.08-.03-.1-.16-.36q-.04-.08-.03-.19h.03l.04.05.03.05.07.12c.05.1.05.19.1.28q.04.08.1.17l.03.1v.13c-.08 0-.1-.1-.14-.16m.33 2.46q0 .01-.02.02c-.08 0-.1-.13-.15-.2l-.08-.14-.07-.1q-.03-.09-.07-.16l-.05-.06-.12-.2-.02-.1-.05-.15q-.02-.05-.01-.1h.01c.06 0 .13.17.16.22q.06.1.12.18.03.1.07.2l.09.11.09.18q.04.1.1.19zM7 10.48q-.05-.01-.09-.04a.3.3 0 0 1-.12-.25l.01-.02c.08 0 .16.13.2.18l.02.1q0 .03-.02.03m.53.03c-.05.01-.18-.13-.21-.2l-.2-.3c-.07-.1-.15-.15-.16-.3q-.01-.06 0-.07c.07 0 .14.13.17.18l.08.1q.04.1.09.18l.14.18.08.1c0 .03.03.12.01.13m1.88 1.04c-.08.01-.17-.1-.2-.16-.02-.01-.06-.1-.05-.11.02-.02.1.01.13.03q.09.07.13.22z"/></svg>