<svg xmlns="http://www.w3.org/2000/svg" fill="#473729" viewBox="0 0 24 24"><path d="M12.76 0h-.24q-.2 0-.5.02c-.2.01-.6.02-.96.06-.26.03-.42.03-.77.13l.28.32.68.78c.27.32.59.67.74.86 0 0 .65-1.75.77-2.17m1.1.13s-.17.32-.2.4l-.54 1.19c-.06.1-.72 2.03-.81 2.18 0 0-.48-.55-.63-.7L9.82 1.37c-.25-.25-.56-.54-.8-.84L8.8.6c-.16.04-.41.15-.52.18-.11.04-.06.08-.01.14.11.12.3.25.37.32.07.1 1.51 1.5 1.65 1.62L11.42 4l.12.12s1.32-.05 1.48-.02l.18-.32c.07-.1.61-1.73.75-2.05.14-.33.4-1 .47-1.14s.08-.23.14-.3q-.01-.02-.1-.05l-.34-.06zm2.2.77-.16.24-.54.83-1.2 1.99-.25.38.37.1c.12.03.34.12.43.13s.06 0 .11-.1a2 2 0 0 1 .19-.32c.1-.14.74-1.06.87-1.2.14-.15.27-.38.38-.53.12-.14.54-.64.6-.77l.3-.42-.1-.08-.4-.14a2 2 0 0 0-.6-.11m-9.2.46s-.03 0-.11.07l-.48.34q-.06.02.02.08L9.1 4.3l.34.25c.03.02.03 0 .09-.02l.56-.13-.04-.07L9.69 4c-.12-.11-.5-.5-.7-.67-.2-.19-.78-.68-1.07-.93zm11.37.38-.03.03-.64.81-.88 1.18c-.18.24-.62.93-.78 1.2l.15-.02c.1-.03 1.57-.65 1.7-.69a1 1 0 0 0 .28-.16q.06-.08.08-.27l.11-1.85c0-.14.04-.24 0-.23m1 .53h-.01q-.04.04-.03.13c-.02.11-.01.16-.04.3-.03.12-.12 1.37-.12 1.47L19 4.5l1.7-.23.25-.04s-.05-.1-.12-.19l-.24-.3-.88-1c-.09-.11-.28-.27-.34-.34-.07-.07-.06-.04-.1-.08q-.02-.05-.05-.05Zm-14 .14q-.03 0 0 .15l.14.7c.04.22.17.83.22 1.21l.32.06c.12.02 2.38.43 2.57.42q.05 0-.1-.1c-.09-.08-3-2.3-3.06-2.37q-.07-.08-.1-.07Zm-.82.52-.09.02-.15.12-.64.6a11 11 0 0 0-1.19 1.56l.12-.04c.08-.03.28-.04.35-.07.1-.03 1.85-.35 1.95-.38-.01-.06-.09-.44-.1-.56s-.15-1.01-.19-1.12q-.02-.1-.06-.13M21.34 4.9h-.01l-.23.05c-.1.02-1.2.25-1.38.27q-.27.03-.67.13l-.05.78-.03.65-.03.4c0 .09-.02.26 0 .41q-.03.05.07-.06c.05-.08.6-.76.77-.98s.95-1.15 1.07-1.23.29-.24.37-.32q.13-.09.12-.1zm-3.21.34-.07.02-.18.06c-.07.03-.7.16-.83.18-.12.03-.35.05-.51.12.04.01.23.18.36.3l.63.53.53.5c.05.03.03-.08.03-.15l.04-1.43zM5.56 5.4l-.14.01s.12.62.13.75.12 1.06.16 1.26c.06-.07.56-.64.95-1a5 5 0 0 1 .98-.76c-.04-.04-.13-.05-.18-.06-.06-.02-1.74-.19-1.84-.2zm16.5.23-.14.12c-.07.06-.53.59-.6.67l-.23.34c-.07.07-.62.63-.75.74-.13.12-.85.93-.92.98-.05.05-.06.08-.14.15.03.05.04.22.07.31l.13.64a2 2 0 0 0 .39-.34c.06-.06 1.88-2.05 1.97-2.13q.15-.14.18-.2l.2-.2.38-.3-.12-.22-.2-.29a1 1 0 0 0-.21-.27m-17.73.33c-.08 0-2.25.5-2.39.53l-.28.08-.25.12c.09.07.22.1.29.15S4.78 8.45 4.84 8.5c.05.04.24.09.24.09.03-.04 0-.08.01-.12l-.3-1.22-.38-1.2c0-.02-.04-.11-.08-.1Zm7.7.52c-.15.15-.18.45-.2.6l-.05.64A4 4 0 0 0 12 9.2c.06.1.06.07.12-.03l.04-.1a1 1 0 0 0 .06-.22q.01-.17.04-.34c.01-.11.05-.31.05-.41v-.3c0-.12 0-.5-.07-.74-.06-.24-.06-.36-.21-.58M23.26 7.5l-.2.18-2.64 2.27c-.2.15-.5.45-.57.5s-.1.07-.1.15c.02.06.02.23.03.35s.04.34.03.47c-.02.11-.03.39-.06.54a67 67 0 0 1 2.3.86c.24.08.74.27.92.35s.56.24.77.3a2 2 0 0 0 .03-.43c0-.2 0-.32-.02-.47l-.2-.09-.93-.35-2.34-.85c-.08-.05-.05-.07 0-.15.04-.06.14-.22.24-.3l1.76-1.35c.1-.08.35-.25.57-.43s.4-.31.72-.5c0 0 0-.16-.05-.33a2 2 0 0 0-.17-.43c-.05-.1-.04-.11-.06-.19zm-9.6.26c-.16.13-.37.4-.48.5s-.2.32-.24.45c-.05.12-.1.39-.14.5-.03.12-.01.12-.01.18l.02.14q.02.03.08.01c.12-.1.3-.28.41-.51a5 5 0 0 0 .36-1.27m-3.42.01s-.02.03 0 .11a4.54 4.54 0 0 0 .33 1.04c.1.21.3.52.5.72v-.22q-.01-.17-.05-.32-.02-.09-.07-.24c-.02-.08-.09-.15-.12-.24a3 3 0 0 0-.27-.44zm-9.43.21-.11.22a2 2 0 0 0-.1.47s.38.11.4.13c.03.01 3.1 1.36 3.52 1.52v-.07l.03-.23q0-.14.09-.35l-.12-.05L2.99 9l-1.8-.83zm8.3.81q-.06 0 0 .09l.22.43c.1.17.14.22.24.32q.15.15.35.3l.34.2c.1.04.26.15.38.2v-.09a2 2 0 0 0-.15-.34 2 2 0 0 0-.29-.42l-.17-.18-.18-.14c-.05-.03-.16-.13-.29-.19-.13-.04-.17-.08-.35-.15zm5.68.15h-.05c-.1.06-.1.07-.26.14s-.13.05-.42.3c-.3.25-.48.57-.54.78 0 0 .1 0 .22-.05.13-.06.31-.2.47-.32.16-.13.2-.2.3-.31.1-.12.18-.32.22-.4.04-.07.1-.14.06-.14m9 .6q-.04.02-.1.08c-.08.06-1.55 1.18-1.59 1.23s-.17.1-.15.12l.16.04 1.23.42c.15.06.4.12.52.19l.02-.38v-.4c0-.26-.04-.73-.06-.95v-.3q0-.06-.02-.06M.38 9.57l-.05.4c-.01.15-.07.31-.07.45l.49.23c.15.08 1.32.7 1.6.83.27.12 1.41.68 1.6.8l-.39.3c-.11.08-.75.77-.96.97s-.51.48-.65.63c-.14.14-1.05 1-1.13 1.04l-.2.15.04.35.07.34c.02.06.04.19.1.3q.09-.07.25-.15c.1-.06.53-.52.61-.58 0 0 1.25-1.22 1.57-1.51s.73-.78 1.09-1.13c0 0-.02-.57 0-.7v-.5c0-.15 0-.16-.03-.19l-.18-.09-1.28-.67c-.09-.04-.35-.13-.5-.21-.16-.09-1.8-1-1.98-1.06m15.16.42-.3.05a2 2 0 0 0-.34.12c-.12.06-.17.12-.32.18a1 1 0 0 0-.35.22q-.08.05-.13.13t-.09.17l-.03.1q.01.06.08.03l.15-.04.32-.1c.12-.04.33-.18.54-.34.2-.15.31-.3.47-.52m-7.12.13-.1.01.06.08q.04.06.15.16.19.13.42.28.23.14.6.23.38.11.65.1c.15 0 .02-.07-.07-.12l-.5-.36c-.2-.16-.34-.17-.49-.22s-.51-.1-.55-.12-.03-.02-.1-.03zm3.7.19-.19.3-.4.62c-.1.11-.22.28-.45.58.1.14.28.52.44.74.16.23.41.6.59.82l.19-.24c.04-.07.13-.17.17-.25l.23-.38.04-.06.17-.26.1-.15q.08-.07.12-.16v-.03l-.04-.08-.08-.1c-.07-.1-.24-.39-.4-.6-.14-.2-.34-.54-.5-.75m3.28 1.1a2 2 0 0 0-.4.06c-.18.05-.69.23-.8.27-.13.04-.04.09-.01.13s.16.08.22.09q.07.02.25.06a8.43 8.43 0 0 0 1.67.01c.3-.03.63-.13.84-.2l-.07-.07q-.03-.04-.2-.12l-.51-.13-.43-.07-.46-.03zm-6.72.17a2 2 0 0 0-.48.07l-.51.15q-.13.04-.3.12-.09.02-.24.08-.1.07-.05.08c.02 0 .13.05.2.05.1 0 .32.06.58.09q.38.02.73 0c.22 0 .47-.02.8-.14.12-.06.16-.05.28-.08.11-.05.18-.08.37-.13l-.1-.1c-.08-.04-.25-.08-.36-.1-.12-.03-.3-.06-.42-.06l-.44-.02zm-8.55.12s0 .02 0 .15c-.02.14.03.8.05 1l.16 1.09s.1-.03.22-.12l.87-.67.75-.61.14-.1-.57-.15-.29-.1c-.12-.07-.35-.14-.45-.2-.08-.04-.33-.1-.51-.17-.13-.05-.18-.07-.37-.12m14.37 1.01-.17.02s.02.04.11.11a3.3 3.3 0 0 0 1.78.52l-.1-.12-.41-.21c-.14-.06-.35-.18-.55-.25s-.38-.06-.5-.06zm-4.64.07h-.07c-.14.03-.21.02-.3.04s-.1.04-.19.05l-.28.12c-.08.04-.3.12-.46.23s-.34.25-.39.31c.16 0 .43.02.64-.02.2-.06.42-.12.63-.26q.13-.1.26-.18l.1-.07.1-.07.04-.03.07-.05q.02-.03-.02-.05zm9.75.16v.25l.01.48q-.01.12.05.17c.05.04 2 1.14 2.13 1.21l1.28.72c.1-.06.11-.15.17-.24l.15-.25.13-.24-.18-.1c-.06-.03-.2-.08-.32-.16s-.3-.17-.43-.27c-.14-.1-.65-.35-.86-.46s-1.35-.71-1.5-.8zm-9.03.3h-.02c-.07.02-.08.02-.27.13s-.4.33-.48.42a3 3 0 0 0-.34.48c-.05.1-.19.39-.24.45-.05.07.01.05.1 0l.2-.1c.1-.07.25-.15.44-.35.2-.2.27-.33.38-.51.11-.19.13-.29.2-.4q.07-.13.03-.11m3.18.27q-.04 0 .08.21c.12.19.3.47.37.55q.1.12.31.24c.13.08.27.19.33.24s.19.12.26.14a1 1 0 0 0-.1-.23c-.09-.14-.18-.3-.38-.5a3 3 0 0 0-.52-.44l-.3-.18zm-.9.39q-.02 0-.01.04v.2c.01.14.04.37.2.74.14.38.39.72.63.99.06-.18.01-.48-.01-.71a1 1 0 0 0-.24-.56c-.09-.1-.04-.06-.15-.2a4 4 0 0 0-.35-.43q-.05-.06-.08-.07m-1.73 0-.03.02-.23.27c-.1.1-.25.3-.3.43s-.14.33-.17.48l-.07.44v.23a.4.4 0 0 0 .14-.12c.05-.07.2-.27.33-.4q.19-.23.24-.44c.05-.15.12-.41.13-.56q.02-.2-.01-.25 0-.1-.03-.1m-6.52.15-.08.12c-.02.04-.1.12-.27.32-.15.2-.96 1-1.23 1.3-.27.32-1.4 1.4-1.6 1.62 0 0 0 .08.05.15.03.08.15.25.25.47 0 0 .04.08.09.05 0 0 .16-.15.23-.25s1.35-1.33 1.49-1.5c.13-.15.82-.8 1.34-1.43-.03-.1-.16-.34-.19-.48s-.03-.24-.08-.37m7.42.03-.07.2q-.03.1-.06.2l-.1.3q-.03.09-.07.25l-.05.37.07.56a4 4 0 0 0 .13.56c.04.13.13.3.15.38.06-.06.06-.15.1-.26.05-.1.11-.4.14-.58s.06-.41.08-.6a3 3 0 0 0-.03-.67l-.12-.41a1 1 0 0 0-.17-.3m7.2.76q-.01-.01-.02.04-.02.1 0 .3l.08.76.06.74.06.73.32-.02c.14-.01 2.4-.23 2.58-.3 0 0-.16-.1-.26-.2s-1.6-1.15-1.88-1.36-.84-.61-.87-.65zM5.2 15.88s-2.65 3.01-2.7 3.11c.04-.01-.03.08.07.03.1-.04 2.25-.56 2.3-.58.03-.04.31-2.3.33-2.56m13.2.38-.23.26c-.08.1-.35.46-.5.62l-.49.45-.52.37q-.07.05.03.07c.06.01 1.37-.1 1.77-.15.04-.12-.03-1.2-.03-1.3zm-12.63.34s.08 1.7.1 1.74 1.08.05 1.44-.03l-.2-.2c-.1-.08-.55-.58-.62-.66l-.6-.68zm16.2 1.69c-.13.04-2.46.28-2.79.3.02.08.07 2.46.1 2.56v.04l.05-.02c.08-.08 1.23-.97 1.4-1.15l.77-.92c.02-.04.45-.68.45-.72.01-.04.03-.04.03-.09zm-5.38.62-1.12.01.19.21c.1.13 2.51 2.44 2.57 2.52s.18.08.22.07c.04-.08-.04-.34-.06-.43-.03-.2-.23-2.22-.3-2.37 0 0-.3.02-.43 0zm-8.41.02h-.02c-.06.02-2.34.28-2.43.34.02.06 0 .2.02.32s.18 2.31.21 2.41c.05.16.01.15.08.3a1 1 0 0 0 .2-.18c.09-.1 1.92-3.05 1.97-3.1q.04-.09-.03-.1m.85.21-.8 1.38-.19.36-.15.3-.85 1.25c-.07.09-.1.12-.18.25 0 0 .31.17.37.24.07.07.3.14.4.22L7.7 23l.1-.2c.03-.06.07-.09.11-.2l.2-.46 1-1.92c.07-.14.35-.65.43-.76l-.08-.05q-.06-.05-.1-.08c-.02-.03-.15-.08-.21-.11-.07-.04-.03 0-.12-.08m5.38.12s-.1.05-.21.07l-.33.08q-.12.01-.04.05c.05.04 1.58 1.78 1.79 2 .2.23.74.83.81.93s.12.19.24.38c.17-.04.31-.16.44-.2q.2-.07.24-.14l-.29-.33c-.17-.2-1.9-2.05-2.14-2.3zm-3.7.33-.1.2-1.07 2.11-.39.74c-.05.12-.03.03-.15.2q-.17.25-.3.58c.07.05.21.1.32.15s.39.1.5.14l1.65-3.3c.1-.23.18-.26.3-.43 0 0 1.26 1.32 1.4 1.5l.92 1.2c.2.26.48.56.67.87 0 0 .44-.08.54-.13.1-.04.33-.08.4-.14-.09-.06-1.25-1.35-1.53-1.64a19 19 0 0 1-.88-.99 7 7 0 0 0-1.03-1c-.19 0-.95-.02-1.24-.06m-5.81 0c-.05 0-1.66.13-1.9.22.11.15.55.64.77.86.24.21.91.84 1.15 1.03q.03.04.05-.1c.03-.1 0-2.01-.07-2zm6.72 1.97c-.05.04-.13.23-.2.34-.06.1-.17.38-.23.5s-.33.72-.44.92-.13.34-.24.52v.03l.03.01c.07 0 .13.06.28.06.11 0 .4.07.6.06h.27l.4-.01q.28 0 .7-.1l.51-.1c.2-.04.22-.06.16-.14l-.32-.44a5 5 0 0 0-.42-.48c-.18-.2-.57-.55-.7-.71z"/></svg>