<svg xmlns="http://www.w3.org/2000/svg" width="24" height="24" fill="none"><path fill="#231f20" d="M19.93 10.43h.8l.26-1.3h1.51l-.26 1.3h1l-.21 1.06h-1l-.34 1.64c-.07.37 0 .43.41.43l.54-.02-.2 1q-.48.07-1.16.07c-.99 0-1.34-.25-1.17-1.14l.4-1.98h-.79zM17.88 10.43h1.51l-.82 4.1h-1.52zM18.17 9h1.5l-.19.97h-1.5zM13.87 10.43l-.82 4.1h1.47l.82-4.1zM17.08 10.25c-.67 0-1.75.7-2.03 1.96l-.08.28H15c.21-.54.75-.83 1.48-.83q.32 0 .6.07l.29-1.46zM11.73 10.43h1.51l-.82 4.1h-1.51zM12.02 9h1.51l-.2.97h-1.5zM8 13.53q1.04-.01 1.27-1.05.2-1.02-.86-1.04c-.7 0-1.16.41-1.29 1.04-.12.64.16 1.05.87 1.05m-1.98-3.1H7.5l-.1.55c.41-.42 1-.65 1.6-.65 1.38 0 2.11.8 1.83 2.22a2.7 2.7 0 0 1-2.68 2.14c-.68 0-1.14-.24-1.34-.54H6.8L6.4 16h-1.5zM1.78 13.25q-.03.23.14.34.17.13.65.13c.33 0 .7-.07.76-.36.05-.22-.1-.28-.45-.32l-1.32-.18c-.86-.11-1.24-.44-1.1-1.14.22-1.1 1.19-1.45 2.64-1.45 1.03 0 2.29.2 2.14 1.35h-1.7q.02-.25-.2-.34t-.53-.1q-.66-.02-.77.4c-.02.12.05.23.43.28l1.28.15c1.02.12 1.46.46 1.3 1.26-.2.96-1.16 1.42-2.76 1.42-1.07 0-2.48-.2-2.27-1.44zM23.69 10.76q.03 0 .04-.02l.02-.03q0-.03-.02-.04l-.04-.01h-.04v.1zm-.12-.17h.13q.06 0 .1.03.03.02.03.08l-.01.05-.05.04.07.13h-.08l-.05-.1h-.06v.1h-.08zm.12.43a.2.2 0 0 0 .17-.07l.05-.08.02-.1-.02-.11-.05-.09a.2.2 0 0 0-.17-.07.2.2 0 0 0-.2.16l-.03.1q0 .06.02.1.02.06.05.09a.2.2 0 0 0 .16.07m0 .07a.3.3 0 0 1-.21-.09l-.07-.1-.02-.14q0-.08.02-.13l.07-.11a.3.3 0 0 1 .43 0l.07.1.02.14q0 .08-.02.14l-.07.1a.3.3 0 0 1-.22.1"/></svg>