<svg xmlns="http://www.w3.org/2000/svg" viewBox="0 0 24 24"><path fill="#818a8f" d="M6.46 4.76c-.3 0-.54.11-.54.26 0 .14.24.26.54.26 1.56 0 6.29-.12 6.29-.26s-4.73-.26-6.29-.26M4.3 6.07c-.53 0-.96.17-.96.37s.43.36.96.36c1.88 0 6.39-.08 9.03-.19l.48-.32a263 263 0 0 0-9.5-.22M2.92 7.75c-.68 0-1.22.21-1.22.47s.54.46 1.22.46c1.61 0 4.76-.04 7.67-.12l.42-.32.48-.34a365 365 0 0 0-8.57-.15m11.82.26-.8.45c1.78-.07 3.02-.15 3.02-.24s-.88-.15-2.22-.21M2.09 9.47c-.76 0-1.37.24-1.37.53 0 .28.61.52 1.37.52 1.38 0 3.75-.03 6.25-.08l.99-.87c-2.84-.06-5.67-.1-7.24-.1m13.98.33c0 .01-.06.2-.35.41 1.35-.06 2.22-.13 2.22-.21s-.72-.14-1.87-.2M1.64 11.22c-.8 0-1.46.25-1.46.56s.65.56 1.46.56c1.13 0 2.89-.02 4.84-.05l.96-1c-2.33-.04-4.49-.07-5.8-.07m12.38.24a5 5 0 0 0 .87.6c2.1-.08 3.59-.17 3.59-.28s-1.9-.23-4.46-.32M1.5 12.99c-.82 0-1.49.26-1.49.57s.67.57 1.5.57l3.46-.03.86-1.06c-1.75-.03-3.3-.05-4.33-.05m.16 1.8c-.81 0-1.47.24-1.47.55 0 .3.66.56 1.47.56l2.1-.01.04-.07c.02-.02.23-.4.66-1.01zm.44 1.81c-.76 0-1.37.24-1.37.53s.61.52 1.37.52l3.23-.03c-.18 0-.25-.09-.25-.09-.35-.3-.6-.57-.88-.9v-.02zm3.23 1.02h.03zm.03 0c1.67-.02 3.57-.05 5.42-.1l-.53-.8-3.51-.07a2.5 2.5 0 0 1-1.13.91zm-2.43.82c-.68 0-1.22.21-1.22.47 0 .25.54.46 1.22.46 1.87 0 5.8-.06 9.03-.15l-.45-.63c-3.13-.1-6.8-.15-8.58-.15m1.37 1.88c-.53 0-.96.16-.96.37s.43.36.96.36c1.88 0 6.41-.08 9.05-.2l-.36-.35c-2.66-.1-6.9-.18-8.7-.18m2.17 1.53c-.3 0-.54.12-.54.26s.24.26.54.26c1.56 0 6.29-.12 6.29-.26s-4.73-.26-6.29-.26"/><path fill="#662046" d="M18.63 13.14v.84c-2.76.1-5.36.27-5.36.46 0 .18 2.55.35 5.27.46a10 10 0 0 1-.19.92c-2.68.11-5.17.27-5.17.45s2.32.34 4.9.45a10 10 0 0 1-.4.95c-2.21.1-4.04.25-4.04.4s1.6.28 3.6.38q-.15.28-.35.53l-.42.56c-1.26.1-2.12.2-2.12.32 0 .1.62.19 1.57.27a9 9 0 0 1-1.86 1.42s-.85-.74-1.55-1.6c-.63-.76-1.96-2.77-2.28-3.23-.3-.45-.51-.58-.88-.45-.5.18-1.06.26-1.24.26s-.27-.06.02-.18 1.46-.67 2.03-1.8c.64-1.27.07-3.03.07-3.03-.21.94-.7 1.3-.7 1.3a2.8 2.8 0 0 0-.45-2.23l-.24 1.1s-.15 0-.52.31c-.37.32-.48.77-.48.77.3.12.65-.17.65-.17a14 14 0 0 1-1.57 3.77c-.47.73-.86 1-1.33 1.2-.4.15-.52-.03-.52-.03a7 7 0 0 1-.88-.9s-.02-.04.05-.04c.2 0 .54-.33.61-.47.09-.15.08-.28.04-.28-.05-.01-.12.11-.5.35-.37.23-.53.07-.66-.06-.1-.1 0-.23.06-.31S5.8 12.09 11 8.25c6.82-5.05 11.17-6.4 11.42-6.5.16-.07.43-.16.5-.1q.1.1.08.22c0 .08-.05.12-.36.26a60 60 0 0 0-7.4 4.19C13.1 7.36 11.06 8.84 11 8.88c-.17.1-.05.25.05.18 3.6-2.39 7.83-4.02 12.5-5.36q.33-.09.38-.01a.3.3 0 0 1 .07.18q.01.12-.26.2-7.51 2.8-11.09 5.2s-.24.15-.25.32c0 .06.14.07.14.07 1.19.02 2.78.1 3.53.14 0 0-.1.38-.83.69-.56.24-1.08.2-1.59.2-.11 0-.21.12-.12.24.05.05 1.14 1.81 5.1 2.21"/></svg>