<svg xmlns="http://www.w3.org/2000/svg" viewBox="0 0 24 24"><path fill="#fc0" d="M23.45 14.8a6 6 0 0 0-.77-1.27 5 5 0 0 0-1.04-.98 5 5 0 0 0-.62-.38l-.34-.17q.18-.07.34-.17.31-.15.62-.37a5 5 0 0 0 1.04-.99 6 6 0 0 0 .77-1.26 6.3 6.3 0 0 0 .53-3.1 6 6 0 0 0-.28-1.32 6 6 0 0 0-.6-1.24 6 6 0 0 0-2-1.95 6 6 0 0 0-1.36-.6 6 6 0 0 0-1.57-.24 6 6 0 0 0-1.54.15 5 5 0 0 0-1.36.52 5 5 0 0 0-1.14.83q-.5.5-.83 1.1a4.3 4.3 0 0 0-.47 2.66 7 7 0 0 0-1.32-.62 6 6 0 0 0-1.78-.3 6 6 0 0 0-1.7.17 6 6 0 0 0-1.46.55 8 8 0 0 0-1.24.84 9 9 0 0 0-.78.7s-.37.38-.56.6l-.66.8-.47.63-.42.51q-.3.35-.64.68a8 8 0 0 1-1.21 1l-.28.18-.2.1q-.1.05-.11.14.02.1.11.14l.2.1.28.18a9 9 0 0 1 1.85 1.68 23 23 0 0 1 .9 1.14 14 14 0 0 0 1.99 2.1 7 7 0 0 0 1.24.84q.7.37 1.46.55a7 7 0 0 0 1.7.17 6 6 0 0 0 1.79-.3 7 7 0 0 0 1.31-.6q-.04.3-.04.59a4 4 0 0 0 .51 2.05q.33.6.83 1.1.5.49 1.13.83.63.36 1.37.52a6 6 0 0 0 1.54.15 6 6 0 0 0 1.57-.24 6 6 0 0 0 2.5-1.47 6 6 0 0 0 1.46-2.32q.21-.65.28-1.32l.02-.5a7 7 0 0 0-.1-1.08 6 6 0 0 0-.45-1.52z" style="display:inline;stroke-width:.6"/><path fill="#306" d="M22.15 15.3a4 4 0 0 0-.73-1.12 4 4 0 0 0-1.02-.85 5 5 0 0 0-1.23-.55 5 5 0 0 0-1.38-.19q-.75 0-1.48.17a6 6 0 0 0-1.16.42 7 7 0 0 0-.95.57q-.42.3-.82.63a10 10 0 0 1-.79.58 4 4 0 0 1-.86.42 3 3 0 0 1-1.02.17 3.5 3.5 0 0 1-2.52-1.06 4 4 0 0 1-.75-1.15A4 4 0 0 1 7.19 12q0-.7.25-1.34a4 4 0 0 1 .75-1.15 4 4 0 0 1 1.13-.78 4 4 0 0 1 1.39-.28 3.3 3.3 0 0 1 1.88.6q.41.26.8.57t.82.63q.44.3.94.57.56.28 1.16.42.74.17 1.48.16a5 5 0 0 0 3.63-1.58 4.4 4.4 0 0 0 1.1-2.48 5 5 0 0 0-.05-1.5A5 5 0 0 0 22 4.5a5 5 0 0 0-.82-1.08 4.7 4.7 0 0 0-3.76-1.3q-.7.08-1.32.4a3.8 3.8 0 0 0-1.76 1.87 4 4 0 0 0-.3 1.28q-.04.71.16 1.38l.06.18.03.08.04.1q.02.01.05.03.04-.01.05-.06l.01-.2a2 2 0 0 1 .18-.68q.26-.62.81-.99a2.5 2.5 0 0 1 1.24-.4q.72-.05 1.37.27.59.3.9.87a2.6 2.6 0 0 1-.06 2.57 2.4 2.4 0 0 1-2.3 1.14 3 3 0 0 1-.9-.26 5 5 0 0 1-.82-.51q-.41-.32-.8-.66l-.86-.71a8 8 0 0 0-.97-.64 6 6 0 0 0-1.14-.47 6 6 0 0 0-1.39-.2 6 6 0 0 0-1.41.15 5 5 0 0 0-1.15.42q-.5.28-.94.64a8 8 0 0 0-.79.78q-.36.42-.7.86l-.69.87q-.34.42-.73.8-.38.4-.82.7l-.19.1q-.06.05-.13.08t-.08.1.08.09l.13.07.19.12q.45.3.82.68.39.4.73.8l.69.88q.34.44.7.86a8 8 0 0 0 .8.78 5 5 0 0 0 3.5 1.2 5 5 0 0 0 1.38-.2q.6-.16 1.14-.46.51-.29.96-.64t.86-.71l.8-.67q.4-.3.83-.5t.9-.26a2.5 2.5 0 0 1 1.31.23q.63.31 1 .9.35.6.36 1.3 0 .67-.3 1.27a2.2 2.2 0 0 1-.9.87 2.7 2.7 0 0 1-1.38.27 2.5 2.5 0 0 1-1.24-.4 2 2 0 0 1-.8-.99 2 2 0 0 1-.19-.68l-.01-.2q0-.04-.05-.06-.03 0-.05.04l-.04.1-.03.08-.06.17a4 4 0 0 0-.17 1.38 3.8 3.8 0 0 0 1.02 2.36 3.8 3.8 0 0 0 2.37 1.2q.71.07 1.4-.07A4.6 4.6 0 0 0 22 19.5q.34-.63.47-1.34a5 5 0 0 0 .05-1.5 5 5 0 0 0-.37-1.36" style="stroke-width:.6"/><path fill="#c09" d="M15.46 12q0-.03-.03-.04a4 4 0 0 1-1.51-.77c-.5-.35-.95-.74-1.44-1.08a3.4 3.4 0 0 0-1.65-.66 2.5 2.5 0 0 0-1.37.3q-.6.34-.94.92-.34.62-.34 1.32v.02q0 .7.34 1.32.35.59.93.92.64.35 1.38.3c.6-.03 1.15-.32 1.64-.66.5-.33.96-.73 1.45-1.08.45-.33.95-.63 1.51-.77q.03 0 .03-.04z" style="stroke-width:.6"/></svg>