<svg xmlns="http://www.w3.org/2000/svg" viewBox="0 0 48 48"><defs><clipPath id="a"><path d="M0 0h48v48H0z" style="fill:none"/></clipPath></defs><g style="clip-path:url(#a)"><path d="M0 0h48v48H0z" style="fill:#fff"/><path d="M10.65 6.13A31.5 31.5 0 0 1 40.29 48H48V0H0v8.01h.04c3.4-1.25 7-1.87 10.62-1.87M0 21.07c1.95-2.78 2.23-5.97.52-7.52a3 3 0 0 0-.52-.38zm10.06-10.12c-1.73-1.98-4.6-2.66-7.94-2.18l-.27.04q-.38.07-.77.15-.77.19-1.08.32v1q.49-.4 1.01-.74.96-.21 1.93-.27A25 25 0 0 0 0 11.26v.77l.03.02s2.45-1.94 4.39-2.77q.7.05 1.35.2a29 29 0 0 0-5.2 2.87c.3.18.57.4.61.43.04-.02 2.85-1.78 5.95-2.84q.64.29 1.18.7c-3.38.95-6.62 2.64-6.62 2.64q.28.32.48.69l.06-.02a43 43 0 0 1 7.12-2.24q.43.59.7 1.32c.27.73-3.29.38-7.53 1.73.19.59.24 1.03.24 1.03s3.99-.89 7.68-.99q.07.98-.05 1.94c-2.18-.11-7.38.16-7.58.18 0 0-.02.75-.21 1.45 0 0 3.8.12 7.25.76q-.4 1.26-1.01 2.44c-2.3-.69-5.8-1.53-6.71-1.74q-.37.92-.91 1.76s4.27 1.86 5.91 2.77c-.71 1.07-2.12 2.56-2.12 2.56l-1.16-.86-3.84-2.68v3.53l2.21 2.59q-1.07.86-2.21 1.6v2.11l.08-.05a32 32 0 0 0 2.98-2.3c7.64-6.65 10.77-15.55 6.99-19.88m9.4.34c-3.62-4.88-9.3-4.18-10.99-3.94-1.86.26-3.26.67-3.26.67.41.04.98.11 1.39.19.3-.07 2.91-.66 4.81-.42-1.39.15-3.29.73-3.49.79.07.02.62.19 1.32.6.2-.06 2.79-.74 5.25-.79 0 0 .91.4 1.79 1.01-3.18-.01-5.81.6-5.88.61q.56.5 1.07 1.21c3.49-.52 6.49-.3 6.49-.3s.41.5.59.77c.23.34.47.76.65 1.13-3.56-.42-6.96-.12-6.96-.12q.35.91.48 1.94c.39 0 3.41 0 7.25.69q.19 1.32.04 2.82a51 51 0 0 0-7.24-1.3q-.1 1.29-.48 2.67c.39.09 4.63 1.1 7.01 2.07a23 23 0 0 1-1.41 3.52c-1.92-.94-6.61-2.78-6.61-2.78a24 24 0 0 1-1.72 3.18s4.03 2.3 5.97 3.57a35 35 0 0 1-3.02 3.75 140 140 0 0 0-5.19-4.19c-1.14 1.35-2.57 2.77-2.99 3.19l4.22 4.84-.12.11q-1.32 1.08-2.73 2.04c-.72.49-1.32.87-1.52 1-.05-.08-2.82-4.49-3.23-5.19l-.92.65v9.08q.75-.36 1.49-.75a38 38 0 0 0 6.84-4.38 43 43 0 0 0 8.65-9.27c4.66-6.88 5.91-14.05 2.47-18.67m7.38 1.66a8 8 0 0 0-1.6-1.63c-3.01-2.27-8.54-3.4-8.54-3.4.53.28.97.57.97.57.03 0 2.26.56 4.24 1.53 0 0-1.8-.41-2.95-.57q.73.64 1.33 1.4s3.67.67 5.28 1.55c0 0 .77.79 1.4 2.19a32 32 0 0 0-5.36-1.55q.57 1.27.82 2.7s3.13.77 5.49 1.9q.3 1.68.24 3.44a44 44 0 0 0-5.54-2.27 19 19 0 0 1-.57 3.73s3.8 1.69 5.5 2.72q-.57 2.27-1.54 4.4a93 93 0 0 0-5.35-3.19 40 40 0 0 1-2.39 4.37s2.87 1.97 5.04 3.69a42 42 0 0 1-3.61 4.69c-.46-.44-4.62-4.14-4.62-4.14q-1.95 2.26-4.19 4.24l4.02 4.55c-2.61 2.15-5.2 3.77-5.2 3.77l-3.35-4.76S4.02 44.7.04 46.59v1.38h13.07c14.6-11.04 19.77-26.83 13.79-35.02M25.93 48a41 41 0 0 0 8.05-13.09c1.51-4.17 2.34-9.25 1-13.77q-.13-.45-.31-.9a11 11 0 0 0-1.59-2.83 30 30 0 0 0-5.5-4.82q.45.57.8 1.18s2.46 1.83 3.89 3.68a22 22 0 0 0-3.01-1.9h-.02c.7 1.71.91 3.13.91 3.13s2.17 1.14 4.13 2.83q.4 1.9.36 3.83c-1.97-1.74-4.26-3.09-4.26-3.09a24 24 0 0 1-.57 4.41s2.16 1.37 4.26 3.28c0 0-.6 2.71-1.58 4.85a53 53 0 0 0-4.14-3.45s-1 2.61-2.62 5.23c2.02 1.76 3.92 3.58 3.92 3.58a42 42 0 0 1-3.89 5.14l-3.61-3.6a49 49 0 0 1-4.78 5.1l1.11 1.23h7.43Zm6.43 0h1.8c5.13-7.58 5.39-14.31 5.39-15.59 0-2.43-.41-4.67-1.09-6.44 0 0-1.07-2.75-2.72-5.2.18.55.53 1.66.72 2.65l.03.18c.33.55 1.8 3.14 2 6s-1.04-1.45-1.81-2.37a24 24 0 0 1-.56 4.66s1.54 1.79 2.23 2.94c0 0-.47 2.51-1.48 4.92-1.02-1.49-2.33-2.94-2.33-2.94a39 39 0 0 1-2.81 5.56s1.95 2.29 2.38 2.94A40 40 0 0 1 32.35 48Zm3.43 0c.95-1.78 2.01-4 2.72-5.88.02.06.38.99.64 1.96a36 36 0 0 0 1.15-5.99c-.07-.27-.21-.7-.29-.97 0 0 .35-1.75.49-3.75A30 30 0 0 1 38.92 48H35.8Z" style="fill:#1414d2;fill-rule:evenodd"/></g></svg>