<svg xmlns="http://www.w3.org/2000/svg" fill="#fdb515" viewBox="0 0 24 24"><path d="m10.61 9.96.02.04a.2.2 0 0 1 .03.14.1.1 0 0 1-.06.09.1.1 0 0 1-.13-.02L6.8 6.46A.6.6 0 0 1 6.61 6q.03-.3.44-.57a.8.8 0 0 1 .6-.2q.23.06.44.46zm-6.19.28a.5.5 0 0 0-.31.09q-.24.17-.27.67a.8.8 0 0 0 .11.62q.18.17.62.15l5.03.04a.16.16 0 0 0 .17-.13.14.14 0 0 0-.1-.12l-5.08-1.3zm.42 5.46.1.02a1 1 0 0 0 .51-.2l4.38-2.48a.16.16 0 0 0 .08-.2.1.1 0 0 0-.12-.06h-.02L4.7 14.19a.6.6 0 0 0-.38.3q-.12.27.1.72.21.43.41.49zm-.73-2.02a.6.6 0 0 0 .48.06l5.1-1.3a.1.1 0 0 0 .07-.12q-.02-.12-.18-.13h-.05l-4.96.04c-.3 0-.5.02-.62.15a.8.8 0 0 0-.12.62q.04.5.28.67zm5.7-8.97a.6.6 0 0 0-.3-.38 1 1 0 0 0-.21-.04 1 1 0 0 0-.5.14q-.42.2-.49.4-.05.22.19.6l2.47 4.4a.2.2 0 0 0 .2.07.14.14 0 0 0 .05-.14zM5.44 8.49c-.21-.13-.44-.24-.6-.19q-.23.07-.4.48c-.13.28-.18.55-.1.72a.6.6 0 0 0 .38.3l5.06 1.42a.1.1 0 0 0 .12-.06.1.1 0 0 0 0-.1.2.2 0 0 0-.09-.11l-.04-.02zm5.78 5.73a.1.1 0 0 0-.06-.12.2.2 0 0 0-.2.1l-.03.03-2.45 4.32q-.24.38-.18.6.07.23.48.41a1 1 0 0 0 .5.14 1 1 0 0 0 .2-.04.6.6 0 0 0 .31-.38zM20.17 11q-.04-.5-.27-.67a.6.6 0 0 0-.49-.07l-5.1 1.3a.1.1 0 0 0-.07.12q.02.12.18.13h.05l4.96-.04c.3 0 .51-.02.62-.15a.8.8 0 0 0 .12-.62zm-1.62 4.52a1 1 0 0 0 .52.2l.1-.02q.22-.06.4-.47c.12-.28.18-.55.1-.72a.6.6 0 0 0-.39-.3l-5.06-1.42a.1.1 0 0 0-.12.06.2.2 0 0 0 .09.2l.04.02zM12 10.14A1.86 1.86 0 1 0 13.87 12 1.86 1.86 0 0 0 12 10.14M6.61 18q.03.3.44.57a.8.8 0 0 0 .6.2q.23-.06.44-.46l2.56-4.33a.2.2 0 0 0-.03-.2l-.05-.01-.1.03-3.68 3.75a.6.6 0 0 0-.18.45m6.17-8.22a.1.1 0 0 0 .06.12.2.2 0 0 0 .2-.1l.04-.02 2.44-4.33q.24-.38.18-.6-.07-.23-.47-.41c-.28-.12-.55-.18-.72-.1a.6.6 0 0 0-.3.38zm7.78 10.78v-.02a10 10 0 0 0 .36-1.13 2 2 0 0 1-1.34.18q.15.54-.17 1.33a10 10 0 0 0 1.12-.35Zm-11.32 1.8a2 2 0 0 1-1.25.52 10 10 0 0 0 .88.81l.01.01h.02a10 10 0 0 0 1.15-.26q-.68-.53-.81-1.08m-6.3-3.55c.8.4 1.39.47 1.67.2l1.21-1.18a1.4 1.4 0 0 1-.77-.62q-.39-.54-.28-.96l.02-.1-.09-.02q-.4-.12-.69-.72a1.4 1.4 0 0 1-.15-.98l-1.63.46c-.47.14-.61.93-.66 1.56a10 10 0 0 0 .04 1.53V18l.13.09a9 9 0 0 0 1.2.72m11.44 3.1-.42-1.64a1.4 1.4 0 0 1-.92.36q-.66.05-.97-.24l-.07-.07-.06.07q-.3.3-.97.24a1.4 1.4 0 0 1-.92-.36l-.42 1.64c-.12.48.5 1 1.02 1.35l.1.07a10 10 0 0 0 1.11.6L12 24l.05-.02a10 10 0 0 0 1.31-.72c.53-.34 1.13-.87 1.02-1.35m4.78-13.6-.1-.02a1 1 0 0 0-.5.2l-4.38 2.47a.16.16 0 0 0-.08.2.14.14 0 0 0 .14.06l5.06-1.41a.6.6 0 0 0 .38-.3q.11-.27-.1-.72t-.42-.48m-3.14 14.57a2 2 0 0 1-1.24-.52q-.15.56-.82 1.08a10 10 0 0 0 1.16.25h.02l.01-.01a10 10 0 0 0 .88-.8zM7.99 1.11q.85.12 1.25.52.15-.54.8-1.07A10 10 0 0 0 8.89.31h-.02l-.02.01a10 10 0 0 0-.86.8Zm8.98.44q-.26 0-.5.02c-.63.04-1.41.19-1.56.66l-.46 1.63a1.4 1.4 0 0 1 .98.15q.6.28.72.7l.03.08.09-.03.17-.02a1.4 1.4 0 0 1 .79.3 1.4 1.4 0 0 1 .61.78l1.19-1.22c.33-.36.07-1.11-.2-1.68a10 10 0 0 0-.8-1.3L18 1.6h-.06a10 10 0 0 0-.99-.05m-2.18.08a2 2 0 0 1 1.25-.52 10 10 0 0 0-.87-.8l-.02-.02h-.02a10 10 0 0 0-1.15.26q.67.54.81 1.08zM3.44 3.44v.02a10 10 0 0 0-.36 1.13 2 2 0 0 1 1.34-.18q-.15-.54.18-1.33a10 10 0 0 0-1.13.35Zm10.77 15.85a.6.6 0 0 0 .3.4 1 1 0 0 0 .2.03 1 1 0 0 0 .51-.14q.4-.2.48-.4.05-.22-.19-.6l-2.47-4.4a.2.2 0 0 0-.14-.1l-.06.02a.14.14 0 0 0-.05.14zM9.63 2.09l.42 1.64a1.4 1.4 0 0 1 .92-.36q.66-.05.97.24l.06.07.07-.07q.3-.3.97-.24a1.4 1.4 0 0 1 .92.36l.42-1.64c.11-.48-.5-1-1.01-1.35a9 9 0 0 0-1.22-.67L12.01 0l-.05.02a10 10 0 0 0-1.3.72c-.54.34-1.15.87-1.03 1.35Zm14.06 13.06.01-.01v-.02a10 10 0 0 0-.25-1.16q-.53.68-1.08.81.41.4.52 1.25a10 10 0 0 0 .8-.87ZM7.55 1.57l-.5-.02a10 10 0 0 0-1.03.05H6l-.03.05a10 10 0 0 0-.78 1.28c-.27.56-.54 1.32-.2 1.68l1.18 1.21a1.4 1.4 0 0 1 .62-.77q.55-.38.97-.28l.09.03.02-.1q.12-.4.72-.69a1.4 1.4 0 0 1 .98-.14L9.1 2.22c-.14-.47-.93-.62-1.56-.66M24 12v-.02a10 10 0 0 0-.73-1.34q-.76-1.13-1.35-1.01l-1.64.42a1.4 1.4 0 0 1 .37.92q.05.66-.25.97l-.06.06.07.07q.3.3.24.97a1.4 1.4 0 0 1-.37.92l1.64.42.12.01q.55 0 1.23-1.03a10 10 0 0 0 .7-1.27zM1.62 6v.02a10 10 0 0 0-.05 1.53c.05.63.2 1.42.67 1.56l1.63.46A1.4 1.4 0 0 1 4 8.59q.29-.6.7-.73l.09-.02-.03-.09q-.1-.42.28-.96a1.4 1.4 0 0 1 .77-.62L4.61 5c-.28-.26-.87-.2-1.68.2a10 10 0 0 0-1.3.8zM22.4 6l-.02-.01-.06-.05a10 10 0 0 0-1.24-.76c-.81-.4-1.4-.47-1.68-.2l-1.22 1.18a1.4 1.4 0 0 1 .78.62q.37.55.28.98l-.02.08.08.02q.41.13.7.73a1.4 1.4 0 0 1 .14.98l1.63-.46c.47-.15.62-.93.66-1.56a10 10 0 0 0-.03-1.53Zm.49 1.98a2 2 0 0 1-.51 1.24q.54.15 1.07.81a10 10 0 0 0 .26-1.15v-.02l-.02-.02a10 10 0 0 0-.8-.86ZM.32 8.85l-.01.02v.02a10 10 0 0 0 .25 1.15q.52-.67 1.08-.82-.4-.39-.52-1.24a10 10 0 0 0-.8.87m20.24-5.41h-.02a10 10 0 0 0-1.13-.36q.33.8.17 1.34a1 1 0 0 1 .38-.05 3 3 0 0 1 .96.22 10 10 0 0 0-.35-1.12zM22.39 18v-.03a10 10 0 0 0 .04-1.52c-.05-.63-.2-1.41-.67-1.56l-1.6-.45a1.4 1.4 0 0 1-.15.98q-.29.6-.7.72l-.09.02.03.1q.1.4-.28.95a1.4 1.4 0 0 1-.77.62l1.21 1.18c.28.27.87.2 1.68-.2a10 10 0 0 0 1.29-.8zm-5.93 4.43.5.02a10 10 0 0 0 1.02-.05H18l.01-.02.05-.06a10 10 0 0 0 .75-1.24c.28-.57.54-1.32.2-1.68l-1.18-1.22a1.4 1.4 0 0 1-.62.78q-.54.37-.96.28l-.1-.03-.01.09q-.13.41-.72.7a1.4 1.4 0 0 1-.98.14l.46 1.63c.14.47.93.62 1.56.66m3.43-8.76q.24-.17.28-.67.03-.45-.12-.62-.16-.16-.62-.15l-5.03-.04a.16.16 0 0 0-.17.13.14.14 0 0 0 .1.12l5.09 1.3a.6.6 0 0 0 .48-.07zM3.44 20.56h.02a10 10 0 0 0 1.13.36 2 2 0 0 1-.18-1.33q-.54.15-1.33-.18a10 10 0 0 0 .35 1.13zm-2.32-4.54q.12-.84.52-1.25-.54-.14-1.07-.8A10 10 0 0 0 .3 15.1v.02l.01.02a10 10 0 0 0 .8.87zm4.85 6.31.05.06h.02a10 10 0 0 0 1.02.05q.26 0 .5-.02c.63-.04 1.41-.19 1.56-.66l.46-1.63a1.4 1.4 0 0 1-.98-.15q-.6-.28-.72-.69l-.02-.09-.1.03q-.4.1-.96-.28a1.4 1.4 0 0 1-.61-.77L5 19.38c-.33.37-.07 1.12.2 1.69a10 10 0 0 0 .76 1.26zm6.36-12.57a.14.14 0 0 0 .12-.09l1.3-5.08a.6.6 0 0 0-.07-.48q-.18-.24-.67-.28h-.16a.7.7 0 0 0-.46.13c-.13.11-.15.32-.15.62L12.2 9.6a.2.2 0 0 0 .13.15M18 6.61a.6.6 0 0 0-.46.18l-3.76 3.68a.1.1 0 0 0-.01.13.2.2 0 0 0 .23.02l.04-.02 4.27-2.52q.4-.2.47-.43a.8.8 0 0 0-.2-.6q-.3-.41-.58-.44Zm-6.39-2.66a.8.8 0 0 0-.61-.12q-.5.04-.67.28a.6.6 0 0 0-.07.48l1.3 5.1a.1.1 0 0 0 .11.08c.07 0 .14-.09.14-.19v-.05l-.05-4.96c0-.3-.02-.5-.14-.62m4.3 14.37q.21.4.44.46h.07a1 1 0 0 0 .52-.21q.42-.3.45-.57a.6.6 0 0 0-.18-.46l-3.68-3.75a.1.1 0 0 0-.14-.01l-.05.08a.2.2 0 0 0 .03.14l.02.04zM.01 12l.02.05a10 10 0 0 0 .72 1.31q.68 1.02 1.23 1.03l.12-.02 1.64-.41a1.4 1.4 0 0 1-.36-.93q-.06-.65.24-.96l.06-.07-.06-.06q-.3-.3-.24-.97a1.4 1.4 0 0 1 .36-.93L2.1 9.63l-.12-.02q-.55.01-1.23 1.03a10 10 0 0 0-.72 1.31Zm17.38-6q-.03-.3-.44-.57a1 1 0 0 0-.53-.22h-.07q-.23.06-.44.47l-2.54 4.34a.2.2 0 0 0 .03.2.14.14 0 0 0 .15-.03l3.67-3.74A.6.6 0 0 0 17.4 6zm.6 11.4q.3-.03.58-.45a.8.8 0 0 0 .2-.6q-.06-.22-.46-.43l-4.32-2.56-.1-.02a.1.1 0 0 0-.1.06.14.14 0 0 0 .01.15l3.76 3.66a.6.6 0 0 0 .45.18zm-5.6 2.65a.7.7 0 0 0 .46.13H13q.5-.04.67-.28a.6.6 0 0 0 .07-.48l-1.3-5.1a.1.1 0 0 0-.11-.08q-.13.02-.14.18v.05l.05 4.96q-.01.44.14.62M6 6.61q-.29.02-.57.44a.8.8 0 0 0-.2.6q.06.22.47.43l4.32 2.56.1.02a.1.1 0 0 0 .1-.06.14.14 0 0 0-.01-.15L6.45 6.8a.7.7 0 0 0-.4-.18Zm0 10.78a.6.6 0 0 0 .46-.18l3.76-3.68a.1.1 0 0 0 .01-.13.2.2 0 0 0-.23-.03l-.04.03-4.27 2.52q-.4.2-.47.43a.8.8 0 0 0 .2.6q.3.4.58.44m5.68-3.15a.14.14 0 0 0-.12.09l-1.3 5.08a.6.6 0 0 0 .07.48q.18.24.67.28a1 1 0 0 0 .62-.12c.13-.12.15-.32.15-.62l.05-5.03a.2.2 0 0 0-.14-.16Z"/></svg>