<svg xmlns="http://www.w3.org/2000/svg" fill="#e31e23" viewBox="0 0 24 24"><path d="M.54 2.96c-.4 0-.66.41-.49.77l7.86 16.43c.32.62.74.88 1.32.88h8.08c.5 0 .71-.3 1.03-.7l4.99-7.14c.86-1.16.84-1.1.22-1.62l-9.37-7.96a2.6 2.6 0 0 0-1.94-.66Zm10.42 2.7c.24-.01.49.13.54.38.03.06.01.16.02.2q0 .09-.04.18-.03.03-.06.07 0 .02-.02.03c0 .02-.03.03 0 .05-.06-.02-.04.04-.05.07q0 .02-.01.01 0 .03-.02.05h-.02q-.03 0-.03.03c-.03.02 0-.02-.02-.01l-.02.02q.01.05-.02.05c-.01 0 .01-.04-.02-.02q0 .05-.05.05l-.01.03q-.05.04-.07.08-.13.16-.23.31-.02.01-.01.03-.03 0-.02.03-.02.01-.02.04c-.06.04-.08.14-.12.2v.01l-.08.18q-.05.1-.1.21v.01q-.01.05-.04.09v.02q0 .01-.01.01-.04.1-.09.22v.1l-.02.01q-.02.04-.05.08c.02.04-.03.08-.05.11q-.02.06-.04.13-.01.04-.03.07c0 .06-.02.04-.02.08v.02q-.07.09-.08.2l-.03.06q0 .03-.02.08-.06.14-.08.25c.02.03-.03.06-.01.1-.02.06-.1.14-.04.2a1 1 0 0 0-.11.3 1 1 0 0 0-.1.35c-.03.08 0 .15-.03.23-.03.07-.1.1-.1.18q-.06.13-.1.27-.02 0-.01.03-.06.1-.07.2l-.03.13q-.03.08-.04.14v.03c-.05.1-.06.26-.09.38-.01.07-.05.15-.04.21-.03.07.03.04-.02.11.03 0 0 .06-.01.07q-.04 0-.03.03c-.05.1.04.22-.03.3v.02h-.02v.01q-.02.05 0 .07c0 .07-.06.13-.05.2v.08c-.02.02.02.07-.02.1s-.01.06-.02.09c-.02 0 .01.02 0 .02-.02-.01-.02.14-.04.18l-.01.04v.03c-.01.05-.04.17.02.15v.03l.01.05q0 .06-.03.1.01.06-.04.1l-.02.03-.02.05-.03.3c.01.04.07.04.04.09l-.02.01H8.8l-.01.02q0 .05-.02.1l-.04.2-.05.44q0 .06-.02.1l-.02.17-.02.22v.04q-.02.07-.03.15l-.02.2c-.03.17-.07.39-.08.55-.04.08-.04.19-.08.27l-.02.03-.01.02c-.03.04-.1.07-.11.09-.09.02-.2.05-.28 0l-.02-.02-.04-.04-.04-.04q-.05-.16-.08-.34-.02-.05-.02-.1-.02-.03-.02-.06l-.01-.07q-.05-.23-.08-.46c0-.06-.05-.1-.02-.14 0-.05-.04-.12-.03-.14v-.04c-.02-.05 0-.17-.07-.16l.03-.04q0-.06-.04-.08c-.02-.04.03-.1 0-.13l-.01-.1v-.02q-.02-.07-.02-.14-.04-.16-.05-.3v-.01l-.1-.65q-.04-.3-.1-.6l-.02-.18q-.02-.01-.02-.03v-.01q0-.16-.03-.32l-.06-.37v.02q.01-.08-.05-.14-.01-.03 0-.07c-.04 0 0-.05-.02-.05l.01-.02q.02-.02 0-.02v-.05q.03-.02 0-.03c-.03 0-.02.04-.04.01l.01-.07q-.03 0-.04-.03c-.03 0-.05-.03-.08 0v.05H6.9v.02h-.02v.04h-.01v.03q-.02.01-.04 0v.04-.01q.01 0 0 0c0 .01.04.02.01.02q0-.02-.03 0-.02-.01-.02.01t.01.01c0 .09 0 .04-.01.05q.02.03 0 .04c-.03 0-.01.02-.03.02v.02q.01.02-.02.03c0 .03-.03.05 0 .07 0 .02-.05.03-.03.06q-.04.02-.01.04c-.03.03 0 .11-.04.07-.04.04.03.02 0 .03q-.01.03 0 .05c0 .02-.04.03-.03.05l-.01.02v.02l-.02.04c-.04.03.05.04 0 .04q-.06.07-.07.14-.05.08-.08.17c0 .03-.05.08-.03.12-.06.01-.12.13-.21.12-.42.08-.37-.38-.24-.63l.06-.17.12-.34q-.01-.03.01-.05c.05-.13.14-.33.17-.49.13-.35.22-.7.35-1.05.06-.16.1-.4.29-.48.3-.13.52.18.52.46.03.1.03.24.06.34.03.17.03.34.1.48-.05.01.02.04-.02.06 0 .03.03 0 .03.01-.03 0 0 .05 0 .06q-.02.05.03.07-.01.02 0 .09c.02.02-.04.03 0 .06l-.01.01v.02l.07.37c.04.01-.02.13.03.14s-.03.05.03.1c.06.17.03.2.08.28q.01.02-.02.02c0 .02.03.05 0 .07.06.1.04.22.08.32 0 .03.06.1.03.15-.02 0-.05.22-.01.2l.03-.02c-.02.01-.05.08-.01.07.05.1.04.08.03.22-.01.08.05.19.01.27.09 0 .02.13.05.19h.03q0 .04.03 0v-.03h.01q.13-1.1.36-2.18c.18-.95.46-1.9.71-2.82.36-1.05.73-2.18 1.2-3.19.01-.08.09-.14.13-.2l.03-.02a.5.5 0 0 1 .37-.2m5.08 2.48c.1 0 .2.03.2.15.02.17-.16.34-.28.45-.13.09-.39.09-.4-.11-.03-.05 0-.11.01-.16l.09-.13v-.01q.04-.05.1-.09a.5.5 0 0 1 .28-.1m2.15.21a1 1 0 0 1 .23.04l.06.06c.03-.04.01.01.02.03q.03.03.03.07c.04-.02-.03.02.06.1h-.03c-.02.06.05.1.04.11q-.02.04 0 .07c.03 0-.02.02-.03.01q-.03.06 0 .1c-.02.09 0 .05.03.03q-.02.03 0 .08 0 .02.01 0c0 .05-.05-.02-.03.04q.02.02 0 .03.01 0 0 .01 0 .05.03.09l-.01.01h-.04c-.03.08.07.05 0 .1-.02.03.06.06.01.05s-.03.3 0 .32q.01.04-.02.03v.03c-.01.03.04.04 0 .05v.02c-.02.04.05.03.03.06-.04 0 .02.05 0 .08-.02-.07-.01.06-.01.08-.05-.01-.01.02-.02.05 0 .03.02-.05.02 0 .02.03-.04 0-.02.03.05 0-.05.02.03.05 0 .05-.04-.05-.03.1h.03q-.02.03 0 .04c-.02.04.05.01.03.05 0 .03-.05.02-.02.04h-.01q0 .03.03.01v.03c-.01.04.04.01.02.04-.01.03.03 0 .04.02q-.01.02.04.05.12.02.2-.04.09-.02.14-.06l.03-.01.1-.06.03-.01.18-.1.16-.08c.13-.06.27-.02.4 0v-.02h.01q.01.02.04.03l-.01-.01c.06.02.08.09.12.13 0 .03.03.05 0 .07q.05 0 .03.03v.02q-.05.02 0 .02l.01.03-.01.01q-.04.01-.03.06c0 .02-.03-.02-.03.03h-.01v.05c-.05-.01-.06.12-.13.14.01.02-.04.01-.03.04-.3.22-.68.25-1 .4q-.15.05-.27.11-.15.06-.3.13l-.32.17q-.06.04-.13.06c0 .03-.06.03-.08.05l-.07.04c-.12.05-.24.14-.36.18-.03.04-.09.04-.12.08q-.04 0-.05.02l-.2.12-.11.05q-.72.4-1.43.85l-.03.02-.08.05q-.07.04-.13.09c.03.02-.04 0-.05.02-.04.05-.15.1-.2.14q-.03 0-.03.02l-.13.09-.04.03h-.01l-.03.02q-.02.01-.02.03-.03 0-.05.03c0 .04-.07.05-.09.08h-.02c0 .03-.04.03-.03.05q.02.04 0 .07l.01.02q0 .01-.02.02c.02 0 0 .1 0 .11.01.04.05 0-.01.08v.01c-.02.03.03 0 .02.02q0 .05-.03.09.06.04.01.11v.08h.01c0 .02 0 .07-.01.03-.04 0 0 .06 0 .07.03.03-.03.06 0 .1v.03q.02.02 0 .05v.02c0 .01-.03.03 0 .04v.01c-.01.02-.02.14 0 .15l-.01.04q-.02.01.01.01.01.02 0 .04c.04.02-.02.02-.02.03V15l-.01.02c.01.02.04-.03.02.03v.04l.01.01c.02 0-.02 0 0 .05v.06c-.03.02 0 0 0 .02v.01q-.02.04 0 .09 0 .01-.02.03c0 .01.03.06 0 .07l-.01.02q0 .02 0 0a.01.01 0 0 1 0 .03q0 .03.03.04v.04l-.03.04h.02v.02c.01 0-.04.09 0 .04.03-.03-.04.07 0 .04q-.02 0 0 .02c.03 0-.03.02 0 .04.05 0-.02.01-.03.03l-.01.04v.02c.04 0 0 .02 0 .02v.02q.04-.02.01.01.05-.02.04.03 0 .02 0 0-.06 0-.03.03c.08.07-.05 0 .02.07q.01.06-.05.05c0 .01.07 0 .03.01v.02c.03.03-.05.05-.01.09.03 0-.02.06.03.02l-.01.04c.02.02 0 .04.03 0-.02.03-.03.08 0 .04 0 .03-.05.02-.06.06-.02.01.02.02 0 .05q.03 0 .02.02c0 .02.04.01.03.03-.05 0-.06-.01-.05.09q.04 0 .03-.03.01.01.01.06h.03c-.04.03-.07.01-.03.07.02.03-.05.06 0 .07v.02h.02v.02q.03-.01.02.01v.01c-.03.03 0 .02-.03.07h.04q-.03.03-.01.05.02 0 .02.02c-.05.04.04.01 0 .06h.01v.06c0 .02-.03.02 0 0-.01-.04-.07.01-.03.02q.01.02 0 .05c-.03.02 0 .02 0 .03v.01c.04.06.02.02.05 0 .02.02-.02.02.02.04q-.02.03 0 .04c0 .02-.02-.01-.01 0v.01l.01.05v.01q.02 0 0 .03h.03q-.01.03.01.01-.01.01 0 .02c0 .02-.05.05-.02.07-.01 0-.1 0-.06.02l.01.01q0-.03.04 0c0 .02-.06 0-.04.02v.02c-.02.03.02.03 0 .06 0 .05.07.05.05 0 .03 0 0 .03.01.05q0-.02.02 0 .01 0 .02.02c-.01.03-.03-.03-.05.01q.02 0 .05.03c.02 0 .05.01.01.03.03-.03-.03-.02 0 0h-.03.01c0 .02.03.03 0 .03 0 .05-.04 0-.05 0v.01c.02 0 0 .04.03.02s0 .02.02.02c-.01.01-.05.02-.02.04q.02.02.02.02v.01h.01q-.01 0 0 .03v.02l.01-.01h.03q0 .04.01 0v.03c-.05.01-.01.05-.05.06l.02.01c-.04.02-.06.06.02.08l-.06.04c-.12.37-.74.33-.78-.07q-.04-.13-.04-.25l-.01-.11q.01-.21.01-.42c.04-.45.02-.97.04-1.39v-.5q.01-.1.01-.19v-.99c-.19.1-.35.25-.52.37-.04.05-.15.11-.2.16l-.22.18-.04.02-1.25 1.03q-.25.2-.48.45a1 1 0 0 0-.23.22q-.2.2-.39.4-.1.09-.17.18l-.11.1q-.29.33-.6.62c-.24.2-.68-.05-.6-.38v-.02c.39-.58.97-1 1.47-1.46l.08-.07c.12-.1.26-.23.38-.3.05-.08.15-.12.2-.2q.06-.02.11-.09h.02c0-.01.04-.01.03-.03l.8-.65.14-.1q.04-.03.08-.05c.03-.05.1-.06.12-.1l.12-.08.26-.2q.06-.02.1-.07l.17-.12c.17-.1.31-.26.49-.36q.11-.1.24-.17v-.08q.01 0 .01-.04c-.03-.05.02-.22-.03-.27q-.03 0-.04.03-.1.06-.19.12c-.02.03-.1.01-.12.04-.01.01-.13.03-.05.04h-.13l-.17.04h-.05q-.1 0-.2-.03c-.03-.03-.1-.03-.13-.07q-.08-.07-.13-.17-.04-.14-.06-.3.02-.29 0-.56l.03-.44.04-.16q.01-.18.08-.36.05-.15.13-.3l.06-.08q.01-.03.03-.05a1 1 0 0 1 .28-.3l.04-.02.06-.05h.02c.11-.05.37-.17.41 0q.03.03.01.08l-.01.04c.03.03-.04.1-.02.13l-.04.04v.02h-.01q0 .04-.03.06-.01 0-.02.02l-.04.02q-.04.04-.05.09 0 .02-.03.03c0 .01-.04.03-.03.04v.03l-.02.02c-.02-.03 0 .05-.03.04v.02l-.01.02c-.06.15-.2.46-.15.6q.02.05 0 .09c-.07.3-.12 1.11.41.7.22-.17.2-.48.23-.72q.04-.22.04-.42v-.04c.08-.3 0-.86.15-1.19v-.01l.11-.09h.03c.17-.12.39-.04.46.11q-.01.01-.02.02c.02.02-.02.1 0 .13-.03.03.03.07.01.1q-.03 0-.01.02s.02.06 0 .06c-.03.02 0 .07-.01.1.03.03-.02.05 0 .07q.01.07 0 .13c-.04-.02 0 .02-.01.04h-.01c-.01 0 0 .08.01.04q.01.01-.02.02l-.04.62-.01.16-.02.23c0 .04-.04.14 0 .16h-.02q-.03.16 0 .3c0 .07-.03.08 0 .1h-.02l.01.05q-.02.01 0 .01c-.02.08.01.04 0 .13-.03.1 0 .21-.02.3v.04c.29-.16.59-.37.89-.54.18-.15.45-.25.61-.39.35-.14.74-.42 1.1-.6q.09-.06.18-.1c.13-.11.73-.35.72-.46-.21-.1-.18-.42-.15-.6.01-.14-.03-.27.02-.41-.03-.09-.01-.06 0-.13h-.01c.02-.09.02-.25.02-.32 0-.15.06-.41-.15-.41-.1-.02-.18.06-.25.1-.05.03-.02.07-.07.08 0 .05-.1.13-.13.12.06.05-.05.07-.05.1l-.02.1q-.01.01-.02.02 0 .08-.03.14.04.02 0 .04 0-.03-.02-.02l-.01.03c-.03.03.07.01.02.04-.01.02.02.03-.03.04q.03 0 .04.02c-.09 0-.04.04-.05.1.06.05.01.07 0 .08q0 .02-.03.02l.01.03h-.02v.04l.04.04v.02c-.02.01.01.04 0 .06.04.01 0 .03-.03.03 0-.06-.02-.01 0 .01 0 0-.04.02-.02.02l.01.05.01.02c-.06 0-.01.13-.03.18v.03q-.02.04.02.01h.02c0 .04-.06.03-.03.07-.03.02.01.04.02.06q-.07.01 0 .02.01.02 0 .05l-.03.06c.02.02.05.1 0 .02q.02.07.02.12c-.03 0 0 .02-.02.03s0 .03-.03.03c-.03.08.01.04-.03.08.01.06-.03.05-.03.08h-.02c-.12.13-.46.3-.56.06-.05-.15 0-.34 0-.48v-.13q0-.25.03-.47v-.15c0-.65 0-1.3.82-1.17.13.02.25-.1.32-.17.14-.17.36-.35.59-.37M15.8 9.42q.06.01.1.05l.01.03v.06q0 .02.01 0h.02v.05l.02.03v.08q-.03.02-.02.02v.02q-.02.01 0 .02-.02.03-.02.04v.01h.02q-.02 0-.01.03v.01c.01.04-.01.02-.01.05q.02 0 0 .02v.01q0 .02-.02.03V10h.02l-.01.03h-.02l.02.03c0 .02-.04 0-.01.03v.01q0 .01 0 0-.02.03-.01.05c0 .03-.02.1 0 .1v.06q.02 0 .01.01c0 .03-.04.06 0 .08v.01c.02.01-.03.02-.01.03s-.03.06.01.07q.02.01-.01.02 0 .05.01.02.02.02 0 .03-.01.01-.01.05c.04.04-.02.02.01.06-.02.06.02.07 0 .07s-.01.02-.02.03c-.06.02.01.04-.02.06 0 .02 0 .08.03.08v.01q.02.02 0 .05 0-.01-.02-.02-.01 0-.01-.02V11q.01 0 0 .03h.03c.02.05-.02 0-.04 0l-.02.28v.02c0 .06 0 .16.02.21q-.02.02-.02.05c.02 0-.02.03 0 .02-.06.22-.34.44-.6.4q-.05-.05-.08-.12c-.03-.19.03-.38.03-.56q.02-.1.03-.23 0-.11.02-.22v-.02l.01-.1.01-.11v-.08c0-.02.03-.06.01-.09.02 0 0-.05.01-.04v-.03l.02-.11v-.12q0-.02.02-.03v-.03l.02-.16v-.07l.02-.06.02-.05v-.01l.01-.02.05-.1.06-.08.04-.02.03-.04a.3.3 0 0 1 .18-.07zm-5.23.94h.1l.02.01c.03.01.04.08.05.11.03 0 .01.05.03.05q.01.04 0 .07v.06q-.03.06-.07.13c-.04.05-.03 0-.05.06 0 .04-.05.03-.06.06l-.05.04q0 .01-.03.02-.04.02-.07.05l-.04.02c0 .02-.04 0-.03.02l-.02.01-.01.01h-.02q-.03.03-.07.02h-.04q0-.01-.03 0v-.02q-.06 0-.07-.05L10.1 11q-.03-.08-.02-.12a.7.7 0 0 1 .5-.52m1.59.76q.12-.03.17.07.04.06.05.1v.01l.02.03.01.03c0 .03-.03.09 0 .1q-.02.07-.07.13-.03.01-.06.06-.1.07-.18.13-.01.02-.04.04l-.02.01-.06.05-.02.02-.14.19q-.05.04-.02.1c-.02 0-.06.03-.02.05-.03 0 0 .05-.05.13 0 .07.03.06-.03.1q.02 0 0 .01v.11q-.01.13-.02.23v.23l-.01.2q.02.01 0 .02.01.05 0 .09-.01.14-.04.28a.6.6 0 0 1-.36.34h-.02a.3.3 0 0 1-.17.04l-.04-.02v-.01h-.01l-.02-.01c-.15-.19-.05-.47-.06-.68q-.02-.11.01-.23c0-.04-.03-.07 0-.1v-.17q.03-.04.03-.1v-.06c.01-.18.05-.4.03-.58.03-.11 0-.24.06-.34.02-.2.22-.33.4-.38h.02l.14-.02.24-.08h-.02q0-.02.03-.01v-.01q.04 0 .06-.02c.02-.02.05 0 .07-.03v-.02h.01q.01.03.02 0c-.01-.02.04 0 .04-.02zm-1.9.8q.16-.02.2.18c-.03.02 0 .08.03.09-.07.01-.06.1 0 .16 0 .01-.04.06 0 .09-.1.28-.1.7-.15 1.02h-.01q-.02.2-.04.4l-.01.14q0 .04 0 .07c.02.01 0 .08-.01.1q-.01.13-.05.26c.01.03.08-.03.04.05q0 .02-.02.02l-.02-.02c-.1.11-.4.38-.58.21l-.04-.14.03-.71h-.01c.03-.1 0-.28.04-.33v-.17c.03-.12 0-.27.03-.37-.02-.14.04-.33.03-.47.05-.12.08-.3.2-.38q0-.04.06-.06a.6.6 0 0 1 .28-.14"/></svg>